<?xml version="1.0" encoding="UTF-8"?>
<svg id="Camada_1" data-name="Camada 1" xmlns="http://www.w3.org/2000/svg" viewBox="0 0 378.87 376.62">
  <defs>
    <style>
      .cls-1 {
        fill: rgb(212, 175, 55);
      }

      .cls-1, .cls-2, .cls-3, .cls-4, .cls-5, .cls-6, .cls-7, .cls-8, .cls-9, .cls-10, .cls-11, .cls-12, .cls-13, .cls-14, .cls-15, .cls-16, .cls-17, .cls-18, .cls-19, .cls-20, .cls-21, .cls-22, .cls-23, .cls-24, .cls-25, .cls-26, .cls-27, .cls-28, .cls-29, .cls-30, .cls-31, .cls-32, .cls-33, .cls-34, .cls-35, .cls-36, .cls-37, .cls-38, .cls-39, .cls-40 {
        stroke: rgb(212, 175, 55);
      }

      .cls-1, .cls-2, .cls-3, .cls-4, .cls-5, .cls-6, .cls-7, .cls-8, .cls-9, .cls-10, .cls-11, .cls-12, .cls-13, .cls-14, .cls-15, .cls-16, .cls-17, .cls-18, .cls-19, .cls-20, .cls-21, .cls-22, .cls-23, .cls-24, .cls-25, .cls-26, .cls-27, .cls-28, .cls-29, .cls-30, .cls-31, .cls-32, .cls-33, .cls-34, .cls-35, .cls-36, .cls-37, .cls-38, .cls-40 {
        stroke-miterlimit: 10;
      }

      .cls-2 {
        stroke-width: 4px;
      }

      .cls-2, .cls-18, .cls-25, .cls-39, .cls-40 {
        fill: none;
      }

      .cls-3 {
        fill: rgb(249, 229, 150);
      }

      .cls-4 {
        fill: rgb(138, 99, 39);
      }

      .cls-5 {
        fill: rgb(249, 229, 150);
      }

      .cls-6 {
        fill: rgb(249, 229, 150);
      }

      .cls-7 {
        fill: rgb(249, 229, 150);
      }

      .cls-41 {
        fill: rgb(138, 99, 39);
      }

      .cls-8 {
        fill: rgb(212, 175, 55);
      }

      .cls-42 {
        fill: rgb(138, 99, 39);
      }

      .cls-9 {
        fill: rgb(249, 229, 150);
      }

      .cls-10 {
        fill: rgb(249, 229, 150);
      }

      .cls-11 {
        fill: rgb(249, 229, 150);
      }

      .cls-43 {
        fill: rgb(138, 99, 39);
      }

      .cls-12 {
        fill: rgb(212, 175, 55);
      }

      .cls-44 {
        fill: rgb(138, 99, 39);
      }

      .cls-13 {
        fill: rgb(249, 229, 150);
      }

      .cls-14 {
        fill: rgb(249, 229, 150);
      }

      .cls-15 {
        fill: rgb(212, 175, 55);
      }

      .cls-16 {
        fill: rgb(212, 175, 55);
      }

      .cls-17 {
        fill: rgb(138, 99, 39);
      }

      .cls-18 {
        stroke-width: 2px;
      }

      .cls-19 {
        fill: rgb(249, 229, 150);
      }

      .cls-20 {
        fill: rgb(249, 229, 150);
      }

      .cls-21 {
        fill: rgb(249, 229, 150);
      }

      .cls-22 {
        fill: rgb(249, 229, 150);
      }

      .cls-45 {
        fill: rgb(138, 99, 39);
      }

      .cls-23 {
        fill: rgb(249, 229, 150);
      }

      .cls-24 {
        fill: rgb(249, 229, 150);
      }

      .cls-25 {
        stroke-width: 3px;
      }

      .cls-26 {
        fill: rgb(249, 229, 150);
      }

      .cls-27 {
        fill: rgb(249, 229, 150);
      }

      .cls-28 {
        fill: rgb(249, 229, 150);
      }

      .cls-29 {
        fill: rgb(212, 175, 55);
      }

      .cls-30 {
        fill: rgb(249, 229, 150);
      }

      .cls-31 {
        fill: rgb(249, 229, 150);
      }

      .cls-32 {
        fill: rgb(249, 229, 150);
      }

      .cls-33 {
        fill: rgb(249, 229, 150);
      }

      .cls-34 {
        fill: rgb(138, 99, 39);
      }

      .cls-46 {
        fill: rgb(138, 99, 39);
      }

      .cls-35 {
        fill: rgb(249, 229, 150);
      }

      .cls-36 {
        fill: rgb(249, 229, 150);
      }

      .cls-37 {
        fill: rgb(249, 229, 150);
      }

      .cls-38 {
        fill: rgb(138, 99, 39);
      }

      .cls-47 {
        fill: rgb(138, 99, 39);
      }

      .cls-39 {
        stroke-linejoin: bevel;
      }
    </style>
  </defs>
  <path class="cls-46" d="M263.92,76.45l-.1.17-.37.63-.22.36-.05.09-.3.49-.22.36-.07.13-.26.43-.15.25s-.05.04-.05.08c-.02.02,0,.04.02.03l-.09.09-.15.25-.26.43s-.04.06-.07.1l-.71,1.18-2.72,4.52-.07.13-.89,1.49.21.27c.06.07.12.15.18.22l.11.14.12.13.42.46c.07-.24-.02-.52.08-.69.09-.07.19.04.22.12l.48,1.1.08.22.07.17.05.14.09.23s0,.01,0,.02l.07.21c.03.07.04.15.04.22l-.09.05s-.04,0-.05-.02l-.86-.84-1.57-1.56-1.73,2.91,2,3.2,1.61-2.26s.04-.05.05-.06l.39-.55c.07-.1.15-.17.18-.28.03,0,.06,0,.09-.01l.51.02.41.02.36.02h.09s.56.03.56.03c.02,0,.03,0,.05,0l.29.03c.06,0,.13.03.18-.01h.05s.04.03.07.03h.02s.04,0,.04,0h.05s.06.01.09.01l.36.03.64.04v.29s-.15,0-.15,0h-.09s-1.16,0-1.16,0h-1.28s-.15,0-.15,0h-.2s-.08-.02-.1,0l-.2.33s-.01.04,0,.06v.03s-.05,0-.05.02c0,.02-.02.04-.03.06l-1.93,3.28.39.59c.44.67,1.54,1.95,2.17,2.46.44.36.94.61,1.49.72.4.08.77-.05,1.05-.33.12-.13.22-.26.26-.43l.15-.55.04-.74v-.54s-.08-.65-.08-.65l-.17-.77c-.03-.16-.06-.31-.02-.47l1.91,1.94-.19.19-.62-.14c.13.77.23,1.56-.12,2.25l-.41.79-.2.3c-.15.17-.34.28-.54.4-.34.22-.73.3-1.14.25-.44-.06-.84-.21-1.24-.42-.55-.3-1.07-.65-1.53-1.08-.6-.55-1.13-1.13-1.65-1.75l-.42-.55-.44.68-1.37,2.34-.8,1.33c-.07.11-.16.23-.23.21-.03-.01-.03-.05-.04-.08l-.81-1.45-.19-.33s-.05-.01-.04-.02v-.05s-.6-1.05-.6-1.05c-.06-.01-.05-.07-.07-.11l-.65-1.14-.12-.19c-.03-.05-.07-.11-.13-.13-.2.18-.35.4-.51.6l-.26.32c-.04.05-.07.07-.11.12-.6.66-1.23,1.27-1.94,1.82-.54.42-1.16.72-1.83.88-.24.06-.5.08-.75.05l-.44-.2c-.14-.06-.38-.2-.47-.27l-.1-.09-.37-.44c-.12-.14-.2-.31-.27-.48l-.11-.27c-.12-.41-.18-.82-.19-1.25-.01-.35.05-.68.11-1.03l-.47.14c-.15.05-.29.04-.4-.08.16-.12.28-.23.41-.37l.52-.57c.05-.05.07-.08.12-.13l.8-.83s.1-.04.13-.02c.03.02.04.08.03.13-.31.87-.42,1.8-.31,2.72.04.33.11.62.26.91.17.33.45.57.8.68.37-.01.71-.09,1.04-.24.66-.28,1.56-1.05,1.99-1.61l.82-1.06.08-.1.59-.8-2.24-3.8h-3.13s0-.27,0-.27h.39s2.22-.18,2.22-.18l.96-.06c.12,0,.22.04.29.14l1.25,1.77.9,1.27,2.07-3.24-1.7-2.9-.26.22-1.46,1.47-.7.68s-.09.04-.12.02c-.11-.07,0-.3.06-.48l.16-.4s-.02-.05,0-.06c0,0,.04-.02.04-.03l.14-.36s-.02-.05,0-.06c0,0,.03-.02.05-.03l.34-.78c.04-.06.06-.17.13-.2s.15.06.15.12l.04.32.02.07v.07s0,.04.01.07c.01,0,.02-.03.01-.04h.03s.25-.28.25-.28c.02-.02.07-.04.07-.08.04,0,.05-.04.07-.06l.52-.58.13-.14-.89-1.46-.05-.06-.23-.38s-.03-.05-.04-.07l-.03-.04s-.02-.05-.03-.08l-5.89-9.7-.82-1.4c-.03-.06-.02-.11,0-.15.03-.06.08-.06.15-.06l7.15-.04h11.99s2.41.04,2.41.04c.04,0,.08.04.09.07.02.03,0,.07-.02.11l-.68,1.17-.06.1-.44.72ZM254.16,84.55l1.49-1.58,5.98-6.39.98-1.08-11.47.02-5.27.04.71.83,3.88,4.19,2.93,3.13.76.83ZM255.91,86.42c.08.09.15.15.25.2l1.28-2.04,3.13-5.03.88-1.43-.14.11-1.13,1.15-3.1,3.17-2.44,2.49,1.28,1.39ZM247.07,78.21s-.02-.04-.05-.05c0,.04.01.05.03.07h.02ZM247.09,78.21s-.02.02-.03.03l5.21,8.41,1.25-1.34c.08-.09.16-.16.2-.28l-.53-.58-6.1-6.24ZM254.22,89.7l1.55-2.54-1.59-1.69-1.56,1.7,1.43,2.31c.05.09.11.16.18.22ZM253.95,98.2c.09.13.15.23.26.33l1.62-2.35.27-.47-1.89-3.13-.93,1.47-.96,1.58c-.03.05-.03.11,0,.16l.18.29,1.45,2.11Z"/>
  <g>
    <path class="cls-42" d="M101.35,126.25c0,8.16-6.62,14.78-14.78,14.78s-14.78-6.62-14.78-14.78,6.62-14.78,14.78-14.78,14.78,6.62,14.78,14.78ZM100.53,126.23c0-7.71-6.25-13.96-13.96-13.96s-13.96,6.25-13.96,13.96,6.25,13.96,13.96,13.96,13.96-6.25,13.96-13.96Z"/>
    <path class="cls-42" d="M97.52,126.25c0,6.05-4.9,10.95-10.95,10.95s-10.95-4.9-10.95-10.95,4.9-10.95,10.95-10.95,10.95,4.9,10.95,10.95ZM96.91,126.24c0-5.71-4.63-10.34-10.34-10.34s-10.34,4.63-10.34,10.34,4.63,10.34,10.34,10.34,10.34-4.63,10.34-10.34Z"/>
    <path class="cls-42" d="M76.6,120.93l-.33.52c-.47-.47-.96-.82-1.55-1.01l.32-.49.36.4c.18-.21.36-.46.47-.74-.02-.12-.27-.19-.43-.17.03-.23.18-.37.3-.54.44.46.93.81,1.5.99l-.31.5c-.27-.29-.49-.49-.83-.67l-.49.72c.31.26.59.43.99.49Z"/>
    <path class="cls-42" d="M76.3,133.95l-.49.02-.89-1.29c.07-.21.05-.44.31-.59.07.33,0,.59.17.89.57-.31,1.1-.66,1.52-1.14l.36.58c-.63.15-1.09.55-1.63.94.32.44.79.28.65.59Z"/>
    <path class="cls-42" d="M86.61,114.85c.76.28,1.1-.41,1.39-.2-.07.14-.23.42-.4.43l-1.56.03c.19-.67.23-1.39.03-2.07h.68c-.24.56-.21,1.16-.14,1.81Z"/>
    <path class="cls-42" d="M98.14,132.76s-.82-.8-1.5-1.04c-.38.36-.43.81-.42,1.31-.27-.07-.38-.48-.26-.67l.76-1.24c.51.52,1.04.91,1.72,1.06-.05.2-.13.36-.31.58Z"/>
    <path class="cls-42" d="M87.14,139.54l-.67-.02c.19-.72.21-1.4,0-2.07h.66c-.19.7-.23,1.42,0,2.09Z"/>
    <path class="cls-42" d="M96.54,121.1c-.16-.13-.22-.3-.35-.54.6-.12,1.39-.56,1.78-1.06l.34.57c-.65.18-1.24.5-1.77,1.02Z"/>
    <path class="cls-42" d="M89.38,132.44c.54.2,1.26.23,1.26-.14l.94.43-.8.61c-.35-.4-1.14.14-2.16-.64-.55-.41-.78-1.05-.65-1.72l.28-1.48h-7.65c-.05.3-.11.63,0,.9l.57.65h-1.96s.69-.75.69-.75c.16-.18.03-.54.03-.77-.14-.04-.35-.08-.45.01l-.68.62v-1.97s.58.58.58.58c.1.1.35.21.48.07.12-.13.09-.48-.02-.6l-.58-.62h1.93c-.1.24-.27.32-.45.48-.22.17-.32.56-.16.78h5s.04-7.54.04-7.54c-.29-.05-.65-.16-.83,0l-.71.62v-1.95s.71.64.71.64c.18.16.53.03.82.04.05-.15.11-.45-.02-.59l-.67-.72h1.93s-.55.63-.55.63c-.1.12-.11.5-.01.64.12.11.53.11.65,0l.65-.58v1.96s-.67-.64-.67-.64c-.16-.15-.45-.13-.67-.05v5.08c.48-.23.95-.36,1.46-.32.63.05,1.12.44,1.31,1.04.18.56.14,1.12.03,1.73h3.16c.04-.27.08-.57-.02-.81l-.6-.7h1.96s-.65.71-.65.71c-.16.18-.04.53-.02.78.23.02.49.07.7-.02l.72-.65v1.95s-.59-.56-.59-.56c-.2-.19-.56-.12-.82-.05-.03.2-.11.49.02.63l.62.68h-1.96s.59-.63.59-.63c.15-.16.13-.45.06-.7h-3.29c-.39,1.25-.76,2.52.46,2.96ZM88.44,128.84c.13-.56.18-1.01.04-1.47-.12-.42-.46-.73-.94-.7-.39.02-1.04.14-1.24.5-.15.54,0,1.13-.06,1.69h2.2Z"/>
  </g>
  <g>
    <path class="cls-45" d="M307.77,127.65c0,8.46-6.85,15.31-15.31,15.31s-15.31-6.85-15.31-15.31,6.85-15.31,15.31-15.31,15.31,6.85,15.31,15.31ZM291.25,113.5c-7.58.65-13.29,7.15-12.97,14.75.33,7.6,6.58,13.59,14.18,13.59s13.86-5.99,14.18-13.59c.32-7.6-5.39-14.1-12.97-14.75-.81-.07-1.62-.07-2.43,0Z"/>
    <path class="cls-45" d="M298.36,133.39c-3.16,2.94-7.39,3.37-11.06.76l-.91-.92c-.24-.25-.61-.31-.86-.11-1.11.89,2.1,3.01,4.73,3.77.81.23,1.4.74,1.47,1.52.07.74-.38,1.7-1.22,1.82-.71.1-1.41-.06-2.08-.31-6.38-2.34-9.99-8.48-8.56-15.25.16-.77.44-1.53.95-2.09s1.4-.44,1.94-.13c.68.39,1.06,1.14.77,1.95-1,2.86-.7,6.28.41,6.08.44-.08.59-.43.49-.91-.92-4.22,1.26-8.16,5.37-9.78.37-.15.84-.09.97-.54.08-.27-.17-.59-.34-.69-1.13-.64-3.57,1.35-4.87,2.56-.46.43-.94.72-1.59.62-.5-.08-1.15-.36-1.38-.99-.24-.67,0-1.4.5-1.93,5.11-5.47,13.92-5.41,18.91.17.33.37.48.84.49,1.28,0,.47-.33.88-.75,1.18-.83.58-1.7.42-2.35-.31-1.8-2.03-4.98-3.43-5.35-2.19-.07.22.11.67.47.75,4.31.99,7.08,5.74,5.93,10.01-.1.37.28.73.57.75,1.17.08,1.21-3.51.41-5.91-.26-.77-.03-1.48.51-1.94s1.41-.64,2.03-.13c.53.44.82,1.17.99,1.88,1.72,7.23-2.57,14.11-9.6,15.89-1.09.27-1.95-.3-2.13-1.32-.18-.96.32-1.69,1.26-1.94,4.26-1.13,6.19-3.88,4.58-3.97-.3-.02-.42.14-.68.38ZM291.64,134.75c.48.06.94.24,1.41,0,.09-.04.29-.06.39-.04.23.04.36-.09.5-.12,1.44-.31,2.7-.99,3.71-2.08.74-.8,1.76-.86,2.49-.15,2.12,2.06-2.28,4.74-5.45,5.61-.38.1-.56.58-.45.86s.47.46.9.36c6.89-1.75,10.62-8.66,8.46-15.44-.12-.37-.41-.47-.64-.46-.31.01-.68.31-.54.69,1.11,3.22.94,8.17-1.73,7.58-.82-.18-1.62-1.03-1.35-2.06.99-3.84-1.31-7.76-5.15-8.76-1.01-.26-1.48-1.27-1.2-2.19s1.26-1.37,2.28-1.12c1.98.5,3.65,1.74,5.09,3.18.25.25.74.11.89-.13.58-.91-1.96-2.61-3.44-3.36-4.75-2.42-10.49-1.44-14.07,2.5-.25.28-.26.65-.1.87.19.24.62.33.87.07,2.16-2.18,6.29-4.64,7.26-2.15.33.85-.12,2.02-1.09,2.28-3.8,1.02-6.08,4.94-5.15,8.72.18.75-.18,1.47-.69,1.84-.57.42-1.37.51-1.98.06-1.31-.98-1.29-4.78-.52-6.84.15-.4.25-.72-.11-1.05-.21-.19-.81-.2-.97.28-2.31,6.74,1.49,13.57,8.39,15.47.4.11.75.05.91-.24.14-.25.07-.85-.34-.94-2.12-.49-4.08-1.55-5.56-3.16-.75-.81-.62-1.88.16-2.53s1.77-.49,2.5.32c1.14,1.26,2.62,1.93,4.31,2.15Z"/>
    <path class="cls-45" d="M298.31,127.65c0,3.23-2.62,5.85-5.85,5.85s-5.85-2.62-5.85-5.85,2.62-5.85,5.85-5.85,5.85,2.62,5.85,5.85ZM291.85,132.34c.41.05.82.05,1.23,0,2.47-.32,4.27-2.51,4.11-5-.16-2.49-2.23-4.42-4.72-4.43s-4.56,1.94-4.72,4.42,1.63,4.68,4.11,5Z"/>
    <path class="cls-45" d="M292.52,124.6c-.07.89-.21,1.67.27,1.83.73-.29,1.53-.63,2.27-.08-.54.32-1.02.53-1.47.95.51.7,1.6,1.09,1.31,2.07-.6-.34-1.01-.82-1.75-.92-.04.91,0,1.81-.91,2.31l-.08-1.98c-.79.43-1.65.68-2.44.24.56-.36,1.16-.53,1.44-1.06-.75-.49-1.38-1.01-1.43-1.95l1.84.86c-.05-1.15.29-2.31.94-2.27ZM292.81,127.7c0-.24-.2-.44-.44-.44s-.44.2-.44.44.2.44.44.44.44-.2.44-.44Z"/>
  </g>
  <g>
    <path class="cls-44" d="M91.48,255.05h-.83s-1.29,0-1.29,0h-.99s-1.29,0-1.29,0h-.99s-1.29,0-1.29,0h-.99s-1.29,0-1.29,0h-.99s-1.29,0-1.29,0h-.99s-1.29,0-1.29,0h-.99s-1.29,0-1.29,0h-.99s-1.21,0-1.21,0v-4.56s2.28,0,2.28,0v2.29s4.55,0,4.55,0v-2.28s4.56,0,4.56,0v2.28s4.55,0,4.55,0v-2.28s2.28,0,2.28,0v4.54c-.1.04-.17.03-.23.03Z"/>
    <path class="cls-44" d="M91.71,247.44l.22.03c.1.02.21.03.31.05l.15.03c.52.1,1.07.11,1.6.05v.15c-.19.06-.26.26-.38.38-.23.23-.48.43-.76.6-.67.39-1.43.63-2.25.62h-1.15s-1.22,0-1.22,0h-1.06s-1.22,0-1.22,0h-1.06s-1.22,0-1.22,0h-1.06s-1.22,0-1.22,0h-1.06s-1.22,0-1.22,0h-1.06s-1.22,0-1.22,0h-1.11s-1.54,0-1.54,0l-.17-.04c-.11-.03-.21-.05-.32-.05h-.14c-.11-.08-.25-.12-.39-.13l-.28-.11c-.68-.31-1.3-.78-1.69-1.4.39.04.76.01,1.14-.03.54,0,1.08-.12,1.6-.28h.15s.17-.07.17-.07c.04-.01.09-.04.13-.04.13,0,.21-.09.32-.12l.3-.08s.11-.07.15-.08c.13-.02.27-.11.38-.16.06-.03.22-.02.22-.16v-1.82s2.29,0,2.29,0v1.14s9.11,0,9.11,0v-1.14s2.29,0,2.29,0v1.89c.75.37,1.5.64,2.28.77Z"/>
    <path class="cls-44" d="M84.87,239.16v-.08s2.28,0,2.28,0v1.6c0,.13.06.15.13.18.12.05.26.12.39.13.04.06.1.06.16.07l.37.1c.83.21,1.66.46,2.51.59l.14.02c.08.01.16.05.24.05l.23.02c.07.04.15.06.22.05h.13c-.29.62-.98.95-1.5,1.37-.03,0-.08,0-.11,0l-.81.29s-.1,0-.14,0c-.05,0-.1.03-.15.05l-.3.03h-12c-.78,0-1.43-.31-2.06-.63-.07-.03-.17-.1-.23-.15-.09-.08-.16-.2-.3-.21,0-.09-.11-.12-.15-.16l-.47-.5v-.1c.42,0,.85-.08,1.24-.21.06-.02.15,0,.22,0,.06,0,.12-.02.16-.05l.14-.02c.08-.01.17-.02.24-.06.03-.02.08-.04.11-.05.06,0,.13-.03.18-.05h.14c.16,0,.31-.09.47-.12l.14-.03c.51-.11,1-.28,1.52-.45v-1.68s0-.08,0-.08h2.28s0,1.14,0,1.14h4.55s0-1.06,0-1.06Z"/>
    <path class="cls-44" d="M82.67,232.25l.23-.02c.39.18.68.46.85.85v.22s-.08.4-.08.4c.72.6,1.51,1.11,2.34,1.5.07.03.17.05.22.09.1.07.19.12.31.15.07.02.15.08.23.07.04.06.1.07.15.08l.23.07c.13.04.25.13.4.14h.14c.1.11.24.16.38.16h.14c.46.19.96.28,1.45.3l.37.02c.17,0,.32.06.55.07-.64.5-1.28.93-1.98,1.29-.1-.04-.16.04-.24.06-.13.04-.28.04-.38.15h-.14c-.08,0-.17,0-.24.05l-.29.03h-1.37s-.99,0-.99,0h-1.29s-.99,0-.99,0h-1.29s-.99,0-.99,0h-1.29s-.99,0-.99,0c-.48,0-.97-.09-1.44-.31l-1.07-.53s-.07-.09-.14-.07l-.78-.62s.02-.06.02-.08c.41.01.83-.03,1.23-.12h.22c.06-.01.12-.03.16-.06l.22-.02c.08,0,.16-.03.24-.05l.14-.04c.79-.21,1.58-.44,2.3-.82.18-.1.43-.17.59-.3.06-.05.21-.06.25-.15.02-.04.1-.08.14-.09.22-.09.49-.28.67-.47.23-.08.44-.27.61-.43.05-.04.05-.07.02-.11l-.03-.28c-.02-.19.05-.43.16-.61.09-.14.24-.29.38-.38.2-.12.45-.14.68-.15Z"/>
  </g>
  <circle class="cls-42" cx="296.62" cy="243.61" r=".93"/>
  <rect class="cls-40" x="287.12" y="234.25" width="18.69" height="18.69" transform="translate(-85.42 280.98) rotate(-45)"/>
  <rect class="cls-40" x="287.12" y="234.27" width="18.69" height="18.69"/>
  <circle class="cls-40" cx="296.33" cy="243.6" r="15.08"/>
  <path class="cls-41" d="M299.85,191.84l-3.63-10.81,4.43-7.42,7.22,7.32.42,1.94,3.42-12.06,6.21-5.92,2.81,3.44,2.52,6.17-5.75,19.41,1.45.27v3.56s-4.82,1.9-4.82,1.9l-.58,3.51-8.06,2.39-.23-.91-7.2-.57-1.61-3.97,2.22-1.32-.44-.34-2.31-3.31-.88-4.77,4.51,1.42c.08.05.13.08.18.16l.12-.08ZM316.83,174.15l1.62-4.27-.65-4.46-5.69,5.42,2.65,3.74,2.07-.43ZM320.52,168.55l-2.36-2.88.54,3.9,1.82-1.02ZM322.28,176.72l.64-2.21-2.31-5.65-1.83,1-1.63,4.31,1.86,3.18,3.27-.63ZM310.39,189.66l4.04-15.03-2.49-3.51-3.56,12.56,1.14,6.32c.31-.13.58-.14.86-.35ZM318.39,176.96l-1.44-2.53-1.87.4,3.31,2.13ZM304.62,184.77l-3.9-10.38-1.36,10.24,5.25.14ZM307.5,180.96l-6.29-6.29,3.66,9.94,2.62-3.65ZM299.11,184.35l1.21-9.54-3.79,6.29,2.58,3.25ZM310.58,197.05c1.04-.62,1.72-1.35,2.56-2l5.46-17.57-3.93-2.56-3.95,14.65,2.19,4.32-2.33,3.15ZM315.05,193.51l2.14.36,4.97-16.81-3.32.63-5.27,16.97,1.48-1.15ZM305.7,192.38l.23-1.16,3.31-1.11-1.6-8.81-2.27,3.15c-.14.19-.3.33-.38.58l.7,7.35ZM297,182.36l.05-.12-.05.12ZM297.11,182.32l-.11.09,3.68,10.96c.1-.16.2-.33.28-.29l.6.32-2.48-8.53-1.97-2.55ZM304.93,197.93l.59-4.06-.82-8.79-5.29-.15,2.57,8.81,2.25,1.57.7,2.62ZM308.02,194.78l2.42-4.75-4.19,1.4,1.77,3.36ZM312.53,193.8l-1.83-3.61-2.39,4.72,4.22-1.11ZM299.2,191.96l-2.91-.86,2.69,1.77c.1-.29.2-.55.22-.91ZM298.32,194.18l.59-1-3.18-2.03,1.42,2.32,1.17.71ZM297.06,194.79l-.16-1.15c-.42-.68-.78-1.38-1.3-1.97l.59,3.27.88-.15ZM299.87,191.93l-.11.05s.04.08.05.13c0,.05.1.07.12,0,.01-.05-.02-.13-.06-.18ZM306.2,200.88l1.63-5.73-1.72-3.29-.99,6.94.36,1.4c.08.3.41.52.72.67ZM300.33,194.6l.29-.82-1.1-1.63-.27.94,1.08,1.51ZM299.63,196.85l.6-1.87-1.1-1.53-.6.97v1.25s1.1,1.18,1.1,1.18ZM303.95,195.45l-2.45-1.65,1.96,3.23.48-1.58ZM317.85,195.59l.71-1.18-3.33-.57.47,2.27,2.15-.52ZM298.2,195.45l.02-1-.97-.55c.06.34,0,.75.14,1.03.22.24.57.35.81.52ZM303.31,197.35l-2.1-3.38.59,4.08,1.51-.7ZM315.16,195.07l-.23-1.09-4.75,3.89,1.08.34,3.9-3.14ZM301.5,198.03l-.64-3.98-1.11,3.5,1.75.49ZM306.72,201.34l.48-.48,5.12-6.68-4.21,1.1-1.66,5.81c-.03.11.17.26.26.26ZM318.03,197.78c.28-.08.45-.14.63-.28l-.03-2.63c-.17.34-.55.63-.56,1l-.04,1.92ZM299.49,197.18l-1.22-1.3c-.32-.34-.81-.52-1.22-.72-.19-.09-.49.06-.69.08l2.09,2.98c.13.18.37.29.56.37l.86-.53c-.35-.36-.47-.42-.37-.88ZM314.52,197.97l.92-1.68-.23-.88-3.59,2.91,1.38.45,1.52-.81ZM317.75,197.63l-.02-1.7-2.03.49-.87,1.62,2.92-.41ZM305.2,201.59c.18-.19.13-.39.16-.58l-1.26-4.98-.42,1.33,1.52,4.22ZM303.22,200.16v-2.4s-1.31.59-1.31.59l1.31,1.81ZM304.75,201.23l-1.21-3.39-.03,2.6,1.24.79ZM300.34,198.03c-.07-.02-.1.07-.03.09l.03-.09ZM300.43,198.06l-.06.11.35.37,1.62,1.1.06-.12c-.31-.33-.48-.83-.85-1.09l-1.11-.37ZM314.27,199.29l2.79-1.19-2.73.33-.88.49c.32.08.58.11.82.37ZM313.77,199.28l-3.53-1.11-.48,3.17,4.01-2.06ZM301.01,201.84l-1.13-3.48-2.93,1.75,4.06,1.74ZM305.72,204.42l3.76-2.91.45-3.11-3.7,3.85.68.49-1.19,1.69ZM305.3,202.85l.51-.58-5.59-3.73,1.11,3.44,3.97.86ZM313.36,202.88l.52-3.37-3.95,2.05,3.43,1.32ZM302.44,199.59l-.03.13c-.13-.07.2.08.03-.13ZM300.94,202.11l-4.12-1.77,1.39,3.43,2.73-1.66ZM305.7,200.88c-.05-.06-.12.01-.06.06l.06-.06ZM305.74,200.92l-.08.07-.08.78c.06.15.29.25.44.33l.48-.52-.75-.66ZM305.74,205.22l7.29-2.17-3.4-1.34-4.02,3.15c-.07.06-.02.32.13.36ZM304.94,203.24l.11-.18-3.8-.82-2.67,1.62,6.61.52-.25-1.13ZM306.29,203.06c.14.03.29-.22.24-.29-.14-.16-.33-.24-.49-.34l-.45.49.7.14ZM305.46,204.26l.73-.94-.74-.18c-.08-.02-.16.03-.19.07-.03.04-.06.13-.03.21l.23.84Z"/>
  <g>
    <path class="cls-47" d="M125.28,96.54c-.05.05-.06.13-.06.2v.12s-.06.09-.06.14c0,.05.02.13,0,.18-.11.25-.11.54.05.81.12.21.33.37.64.43l12.2,2.47c.53.11.96-.22,1.07-.73l3.72-18.37c.1-.51-.18-.98-.7-1.08l-12.27-2.48c-.48-.1-.92.2-1.02.65l-.51,2.48v.16c-.06.04-.06.09-.07.14v.17c-.05.04-.06.09-.06.14v.18c-.05.03-.06.09-.06.14v.2c-.08,0-.16-.02-.2-.08.07-.14.08-.28.07-.43,0-.05,0-.1-.05-.15l-.02-.43c0-.07.01-.15-.05-.2.01-.07,0-.15-.03-.22l-.03-.08v-.03c.06-.11.06-.24.04-.36v-.17c.07-.04.05-.1.06-.14l.33-1.58c.22-.71.96-1.15,1.71-1l12.37,2.51c.77.16,1.26.97,1.1,1.73l-3.76,18.53c-.17.84-1.01,1.28-1.81,1.12l-12.21-2.48c-.81-.17-1.37-.91-1.21-1.71l.21-1.04.64-.06-.03.33Z"/>
    <path class="cls-47" d="M125.46,96.91v-.11c.04-.06.07-.12.07-.19v-.17s.06-.09.06-.15c.02-.04.01-.1.06-.1l.13-.02c.08.02.15,0,.21-.04l.85-.06c.48.48.81,1.04.98,1.69.05.19.2.33.41.38l7.76,1.57c.2.04.38-.08.48-.2.54-.67,1.24-1.13,2.08-1.34.21-.05.37-.2.41-.44l2.78-13.73c.05-.25-.04-.44-.22-.58-.74-.55-1.24-1.32-1.44-2.23-.04-.18-.19-.35-.39-.39l-7.57-1.53c-.2-.04-.41.07-.52.22-.55.76-1.32,1.28-2.24,1.5-.21.05-.36.23-.41.43l-.59,2.89c-.04.07,0,.17-.11.24,0-.17,0-.27-.06-.36.01-.12,0-.3-.02-.42v-.27s.02-.12.02-.17c.04-.04.05-.09.05-.14v-.17c.05-.04.06-.09.06-.14v-.17c.07-.05.06-.13.07-.2l.06-.43s.05-.09.05-.14v-.17s.06-.09.06-.14l.02-.17.51-2.47c.06-.27.35-.51.67-.44l12.31,2.48c.33.07.53.39.46.71l-3.74,18.47c-.06.31-.28.46-.54.55-.09-.05-.15-.11-.26-.13l-12.2-2.47c-.33-.07-.51-.38-.45-.67l.1-.54ZM130.29,80.29c.11-.09-.02-.42.34-.64.06-.04.1-.12.07-.16-.12-.16-.41-.12-.48-.5-.01-.05-.06-.11-.1-.12-.04,0-.11.02-.14.06-.27.38-.86.16-.65.44.29.39-.14.88.26.76s.61.23.7.15ZM141.88,82.63c.09-.1-.02-.41.31-.61.05-.03.1-.1.1-.14,0-.04-.06-.11-.12-.13-.41-.14-.34-.54-.5-.54-.04,0-.11.04-.13.08-.25.35-.63.15-.66.33,0,.04.03.12.06.16.23.3-.06.59.06.68.04.03.14.03.19.02.39-.11.59.26.7.15ZM126.69,97.98c.15-.08,0-.43.35-.63.05-.03.09-.1.1-.14.01-.14-.42-.11-.55-.69-.19.03-.24.23-.36.26l-.55.13c.36.47.06.81.17.88.02.02.1.04.14.03.46-.15.59.22.71.15ZM138.28,100.32c.12-.11,0-.43.34-.64.07-.04.09-.14.06-.18-.08-.12-.38-.07-.47-.48-.01-.05-.07-.11-.1-.12-.04-.01-.12.02-.15.07-.25.37-.86.15-.65.44.27.36-.03.68.1.76.03.01.11.02.15,0,.42-.14.61.24.71.15Z"/>
    <g>
      <path class="cls-47" d="M129.57,90.28c-.06-.15-.01-.26.05-.33.07-.09.2-.15.34-.1,1.5.52,3.11.25,4.37-.74,1.17-.92,1.86-2.41,1.72-3.98-.01-.14.07-.25.18-.31s.24-.06.37.05c1.55,1.21,2.19,3.23,1.54,5.13-.58,1.74-2.25,3.02-4.14,3.09s-3.68-1-4.43-2.82Z"/>
      <path class="cls-47" d="M135.75,98.96c.21.03.33-.1.46-.24.55-.59,1.24-.95,2.02-1.21l2.69-13.24c.03-.17-.03-.28-.13-.36-.65-.57-1.11-1.29-1.36-2.11-.03-.11-.13-.19-.25-.22l-6.84-1.39c-.14-.03-.25.05-.32.13-.57.67-1.29,1.15-2.13,1.42-.16.05-.21.19-.24.35l-1.02,5.02c-.16-.29-.11-.58-.14-.88l.88-4.32c.05-.24.23-.41.46-.48.8-.25,1.47-.72,2-1.36.14-.16.36-.23.59-.18l6.75,1.36c.28.06.5.2.59.48.24.77.67,1.43,1.27,1.96.18.16.27.37.22.63l-2.63,13c-.06.28-.17.49-.44.58-.72.23-1.34.63-1.86,1.19-.14.15-.34.25-.57.2l-7.12-1.44c-.22-.04-.38-.22-.45-.42-.2-.54-.46-1.01-.84-1.42.13-.04.23-.05.37-.06.39.44.63.96.86,1.55l7.2,1.47Z"/>
      <path class="cls-47" d="M132.59,87.65c-.34.07-.59-.61-.96-.8s-1.43-.06-1.15-.58l.47-.89c.08-.39-.25-.96-.05-1.19.22-.25.83.14,1.22.09s1.2-.79,1.28-.23l.14,1,.68.76c.37.42-.67.55-.98.83-.28.25-.4.94-.67,1Z"/>
      <path class="cls-47" d="M131.02,95.99c-.2.15-.59-.25-.91-.23-.24.02-.51.26-.76.13-.11-.06-.08-.38-.04-.5.08-.23-.06-.42-.08-.6-.03-.22.11-.45.06-.7.7.04.81-.87,1.11-.68l.48.65c.1.14,1,.22.71.57l-.43.51c-.11.14.04.72-.14.86Z"/>
      <path class="cls-47" d="M136.9,96.17c-.24.1-.33-.46-.98-.35-.07.01-.17-.04-.2-.1-.03-.05-.02-.14.03-.22.33-.5-.08-.8.04-.97.14-.19.53.17.97-.26.05-.05.15-.08.21-.07.22.04,0,.54.54.84.08.04.15.13.14.21,0,.06-.1.15-.18.17-.52.19-.38.67-.57.75Z"/>
    </g>
    <path class="cls-47" d="M127.51,80.19c0,.06-.04.15.04.21v.36c.01.1.02.17.05.26.03.11.03.25.03.37,0,.07-.01.15.05.21v.36c.01.08.03.14.05.21s.02.15.1.2c-.06.12-.05.23-.04.36l.03.44c0,.05,0,.1.04.14.02.34.06.67.1,1.01l.03.25.02.31c0,.07,0,.15.04.21l.96,8.92c.09.88-.52,1.58-1.38,1.68l-12.44,1.34c-.77.08-1.54-.47-1.62-1.26l-2.04-18.79c-.1-.88.52-1.59,1.38-1.68l12.43-1.34c.79-.08,1.53.47,1.62,1.25l.55,4.99ZM115.17,96.4l12.47-1.35c.49-.05.81-.49.76-.98l-2.02-18.67c-.06-.54-.49-.87-1.02-.81l-12.43,1.35c-.49.05-.81.49-.76.98l2.03,18.73c.05.48.48.81.97.75Z"/>
    <path class="cls-47" d="M126.03,74.78l2.16,19.93-13.66,1.48-2.16-19.93,13.66-1.48ZM125.55,76.52c.07.03.15,0,.18-.03.06-.11-.16-.36.11-.68s-.34-.11-.59-.52c-.03-.04-.09-.08-.12-.08-.14,0-.11.38-.55.49-.05.01-.12.07-.12.1s.04.11.08.14c.33.25.17.56.28.65.12.1.32-.25.74-.07ZM117.4,95.39l7.83-.85c.24-.03.38-.18.46-.38.31-.8.86-1.45,1.59-1.89.15-.09.26-.28.24-.49l-1.52-14c-.02-.2-.17-.37-.35-.43-.88-.3-1.59-.88-2.06-1.68-.11-.18-.3-.31-.53-.28l-7.7.84c-.19.02-.34.2-.39.37-.3.9-.88,1.62-1.69,2.11-.17.1-.24.26-.25.48l1.52,14c.06.24.2.37.41.44.81.28,1.48.81,1.95,1.53.09.14.26.26.49.23ZM114.11,77.07s.05-.15.02-.19c-.07-.07-.41.03-.61-.32-.04-.07-.18-.12-.21-.05-.11.31-.32.41-.65.56.51.36.29.74.45.82.03.01.08,0,.13-.03.34-.27.7.05.75-.11.04-.15-.15-.38.12-.68ZM127.61,94.49c.13-.16-.01-.34.04-.46l.19-.52c-.59.02-.65-.43-.8-.38-.12.04-.09.43-.65.53.02.2.22.25.26.38l.14.54c.27-.2.51-.25.83-.1ZM115.93,95.67c.05-.11-.15-.38.1-.65.05-.06.09-.15.04-.2-.1-.11-.4,0-.6-.32-.04-.06-.11-.11-.16-.1-.13.02-.1.39-.51.48-.06.01-.14.07-.15.11,0,.03.04.11.07.13.37.3.18.64.33.69.03,0,.1,0,.14-.03.36-.26.68.07.75-.11Z"/>
    <path class="cls-47" d="M117.8,94.99c-.26.03-.5-.03-.63-.21-.47-.62-1.05-1.09-1.77-1.4-.21-.09-.37-.25-.4-.51l-1.44-13.3c0-.24.07-.41.25-.54.63-.46,1.15-1.04,1.46-1.77.1-.25.24-.49.55-.53l7.02-.76c.25-.03.46.12.59.31.46.67,1.09,1.15,1.82,1.47.22.1.34.28.37.54l1.44,13.29c.03.25-.09.44-.26.57-.61.45-1.08,1.01-1.41,1.7-.1.21-.3.34-.54.37l-7.04.76ZM117.72,94.68l7.28-.8c.38-.82.9-1.49,1.62-2,.09-.07.11-.21.09-.33l-1.43-13.23c-.02-.14-.11-.22-.21-.26-.79-.35-1.46-.89-1.95-1.6-.07-.1-.19-.17-.33-.15l-7.1.78c-.37.9-.9,1.64-1.68,2.19-.12.08-.17.2-.14.37l1.43,13.17c.01.14.09.23.2.28.76.32,1.39.81,1.89,1.46.06.08.16.15.33.13Z"/>
    <path class="cls-47" d="M121.05,90.32c-.06.13-.16.18-.25.19-.12,0-.2-.06-.28-.16l-1.47-1.96-2.71.28c-.18.02-.32-.24-.25-.4l1-2.25c.04-.1.04-.24-.02-.33l-1.48-2.01c-.11-.16,0-.42.18-.44l2.7-.32,1.03-2.28c.05-.1.15-.16.24-.17s.19.04.26.13l1.49,1.99,2.71-.28c.18-.02.33.24.25.41l-.96,2.15c-.06.13-.11.29-.01.43l1.46,1.97c.06.09.07.22.04.3-.02.06-.09.17-.2.18l-2.69.32-1.03,2.25Z"/>
    <path class="cls-47" d="M122.97,80.38l-.73-.39c-.34-.07-1.13.31-1.03-.18l.15-.76c.04-.21-.45-.69-.31-.96.11-.2.82-.07.97-.21l.56-.52c.11-.11.28-.09.35.05l.35.73c.08.18,1.12.41.73.77l-.56.51c-.16.15-.06,1.17-.47.95Z"/>
    <path class="cls-47" d="M123.8,92.89c-.28.08-.53.45-.76.36-.21-.07-.15-.69-.3-.82l-.48-.4c-.06-.05-.08-.1-.09-.15-.01-.07.01-.15.09-.2l.55-.34c.18-.11.18-.72.44-.79.18-.05.42.37.69.49s1.03-.09.86.33l-.25.62c-.07.18.27.66.11.86-.13.17-.56-.05-.86.04Z"/>
    <path class="cls-47" d="M116.98,81.35c-.11.22-.61-.16-1.08.37-.06.07-.19.14-.27.11-.24-.07-.06-.65-.66-.9-.09-.04-.19-.12-.2-.2s.07-.2.16-.24c.65-.33.39-.87.65-.96.07-.02.19.03.26.09.49.51.97.11,1.11.32.04.05.03.19-.01.26-.33.62.17.9.05,1.15Z"/>
    <path class="cls-47" d="M117.36,92.22c-.16.19-.45-.32-1.03-.04-.06.03-.19.01-.24-.02-.04-.03-.06-.13-.04-.2.16-.58-.29-.74-.26-.94,0-.06.11-.14.19-.14.62-.03.62-.53.84-.54.07,0,.16.08.2.16.21.54.66.4.75.61.03.07-.03.18-.1.24-.43.34-.19.74-.31.88Z"/>
  </g>
  <path class="cls-43" d="M262.25,293.28l-.34.02c-.06,0-.11.02-.16.05h-.19s-.14.02-.14.02h-.13c-.06,0-.12.01-.15.06h-.07s-2.06.19-2.06.19h-.2s-.2.02-.2.02h-.13c-.08,0-.16,0-.22.05l-.54.02c-.08,0-.16,0-.22.05-.09-.02-.18.01-.26.02-.16,0-.35-.03-.49.06-.01,0-.04,0-.06,0-.12-.02-.25,0-.35.06-.03,0-.1,0-.14,0-.18-.06-.37.04-.55.03h-.15c-.08,0-.15,0-.2.06h-.07c-.32,0-.64.05-.96.07h-.14c-.05.01-.1.02-.14.07h-.07s-.33.01-.33.01c-.04.22.14.32.22.44.07.12.15.22.24.32l1.79,2.12.6.7c.23.26.44.6.71.83.08.06.09.27.25.29,0,.08.08.13.1.18.05.1.18.16.23.24.14.23.32.47.52.65.03,0,.04.01.03.03.14.23.38.54.58.7,0,.18.2.26.27.37.3.47.57.66.3.66-.1-.18-.3-.25-.45-.37l-2.43-2.03-.14-.1-1.3-1.08-.12-.11-1.81-1.49c-.06-.05-.13-.1-.19-.15l-.72-.61-.1.51v.28s-.1,1.12-.1,1.12l-.02.32v.21c0,.06-.03.13-.02.18-.05.07-.04.14-.04.23l-.02.67c-.06.06-.05.14-.05.22l-.02.61-.07.55-.02.42-.17,1.77v.16s-.2,1.87-.2,1.87l-.02.18c-.08.08-.05.2-.06.3v.11s-.06.08-.06.06l-.26-1.68-.81-7.99-.96.73-6.4,4.96c1.42-2.07,3.04-3.78,4.59-5.61.51-.57,1-1.09,1.45-1.78l-4.86-.5c-1.38-.14-2.71-.23-4.07-.45.32-.13.59-.12.86-.15l5.81-.54c.73-.07,1.41-.11,2.17-.24l-3.9-4.92c-.13-.16-.28-.4-.42-.53-.07-.06-.08-.25-.21-.27-.01-.1-.07-.18-.16-.21,0,0-.02-.01-.03-.02-.01-.11-.07-.2-.16-.25-.04-.13-.13-.23-.21-.34l-.36-.49c.12-.07.19,0,.26.04l.62.47c.12.09.22.24.37.32.04.02.11.05.14.09.1.13.22.27.39.3.02,0,.04.03.06.05.01.08.09.12.13.17.07.09.15.13.24.17.04.03.1.1.14.14l.47.4c.07.06.19.12.25.18.09.1.19.17.3.25.16.12.28.35.49.41.03,0,.06.04.08.06.19.22.43.4.68.56.07.05.2.15.25.22.08.13.23.19.34.28l1.19.99c.14.17.34.31.56.44.07-.17.06-.26.07-.37.02-.16.05-.31.03-.47.04-.05.04-.1.04-.16l.03-.6s.05-.1.05-.16v-.55c.07-.13.06-.27.07-.4l.02-.22.06-.4c.02-.16.03-.31.02-.47.06-.09.06-.2,0-.29.03-.11.06-.22.05-.33.06-.07.05-.14.05-.22v-.46c.08-.08.07-.19.07-.29,0-.13,0-.3.01-.42,0-.05.06-.11.06-.19v-.47s.05-.1.06-.16l.02-.46c.06-.06.05-.14.05-.22l.1-1.01c0-.07.05-.15.04-.23,0-.08,0-.17.11-.21.37,2.57.63,5.19.78,7.83.02.35-.05.64.08,1l1.86-1.59,5.13-4.2c-1.15,1.78-2.49,3.25-3.72,4.86-.61.8-1.23,1.5-1.82,2.39.93.13,1.83.19,2.77.28l5.95.58c0,.09-.09.11-.15.13Z"/>
  <path class="cls-42" d="M139.48,292.5c0,7.3-5.91,13.21-13.21,13.21s-13.21-5.91-13.21-13.21,5.91-13.21,13.21-13.21,13.21,5.91,13.21,13.21ZM123.61,288.8l2.6-8c-4.98.01-9.39,3.19-11.04,7.99l8.45.02ZM137.38,288.78c-1.68-4.8-6.02-7.93-11.04-7.99l2.59,8.02,8.44-.03ZM127.38,288.77l-1.12-3.37-1.1,3.38h2.22ZM121.95,293.84l-6.81-4.94c-1.57,4.85.19,10.06,4.21,13.01l2.61-8.08ZM126.24,297.01l-6.82,4.97c4.14,3.02,9.68,2.93,13.72-.01,4.03-2.93,5.84-8.11,4.27-13.06l-6.82,4.93,2.57,8.1-6.92-4.93ZM123.13,290.26l-3.55.03,2.85,2.09.7-2.12ZM128.86,293.29l-.99-3.02h-3.22s-.95,3.03-.95,3.03l2.57,1.86,2.59-1.87ZM132.89,290.33l-3.47-.05.68,2.11,2.78-2.06ZM125,296.07l-1.81-1.29-1.04,3.36,2.85-2.07ZM130.41,298.17l-1.09-3.39-1.8,1.3,2.9,2.09Z"/>
  <g>
    <path class="cls-42" d="M174.41,304.38l-1.44.5c-.36.12-.74.02-1.17,0l-.09,1.38,1.56.06,8.37,2.95c3.06,1.08,6.07,1.98,9.23,1.36l.09.16c-2,1.42-3.75,3.05-5.57,4.69l-3.56,3.22c-.67.61-1.41,1.06-2.21,1.45-1.21.6-2.46.52-3.64-.1-.97-.51-1.57-1.36-1.6-2.49-.02-.85.24-1.67.93-2.13.65-.44,1.47-.65,2.32-.23-1.28.35-2.04,1.59-1.73,2.85s1.57,2,2.81,1.69,1.94-1.52,1.74-2.82c-.26-1.64-1.39-2.94-2.97-3.27s-3.24.37-4.05,1.81c-.36.65-.46,1.36-.45,2.09,0,1.65.89,2.97,2.3,3.73,1.59.86,3.34.93,4.98.12.95-.47,1.83-1.02,2.62-1.74l3.46-3.14c1.25-1.14,2.43-2.24,3.75-3.3,2.07-1.66,4.24-3.09,6.69-4.27l.42,12.47,5.23-9.34c-.96.34-1.81.74-2.77.63-.81-.03-1.43-.59-1.53-1.38-.16-1.32.35-2.57,1.37-3.43l4.64-1.65c.89.13,1.71.13,2.61.07l-.06-1.39c-.78,0-1.58.17-2.33-.08l-1.6-.54-6.91-2.46c-1.41-.5-2.74-.92-4.18-1.27-2.09-.5-4.15-.47-6.23.05-1.35.34-2.59.72-3.91,1.19l-7.12,2.54ZM182.06,307.95l-6.66-2.41,9.01-3.17c-.43,2.68,1.6,5.04,4.26,5.04,2.62,0,4.67-2.32,4.25-5.02l3.62,1.21,5.39,1.95-6.49,2.34c-1.38.5-2.7.91-4.12,1.25-1.8.43-3.58.43-5.38-.02-1.34-.29-2.54-.72-3.88-1.16ZM190.98,310.63c.13-.11.25.1.04.12l-.04-.12Z"/>
    <path class="cls-42" d="M172.66,300.98l-.35,1.35c1.21.36,2.46.36,3.68-.06l5.28-1.85c1.5-.52,2.93-.97,4.47-1.34,2.14-.51,4.22-.44,6.36.14,3.01.81,5.86,1.9,8.79,2.95,1.24.44,2.48.58,3.76.31.12-.45-.24-.84-.32-1.39-1.54.43-3.24-.28-4.7-.9l-6.05-1.99-2.08-.52c-3.44-.87-6.99.13-10.29,1.29l-5.62,1.96c-.98.34-1.99.34-2.94.06Z"/>
  </g>
  <g>
    <path class="cls-42" d="M189.98,62.33c.18.34.31.76.31,1.14v1.73c.44-.47.96-.71,1.53-.75.1,0,.21-.06.29-.07.19-.03.34-.1.47-.24.06-.06.09-.12.14-.19.12-.16.18-.35.15-.57l.14.06c.17.57.23,1.17-.02,1.71l-.71,1.08.54-.14c.53-.14,1.11-.07,1.63.09l.54.17.31.06c.43.09.87,0,1.2-.29.21-.18.4-.38.52-.65.07.15.05.25.03.34l-.09.53c-.13.41-.28.81-.54,1.15-.25.32-.54.63-.9.81l-.6.31c-.07.04-.17.07-.24.11-.14.08-.29.11-.44.29.27.08.52.16.69.33l.07.07c.43.42.68.97,1.19,1.02.21.02.45.02.61-.12.04,0,.09.01.11.04.02.02.02.06,0,.09-.11-.02-.17.17-.24.22-.34.27-.76.57-1.21.59h-.42s-.91-.06-.91-.06c.44.31.77.65.97,1.09l.24.55c.16.38.15.81.31,1.19.1.23.2.46.42.6.04.02.07.1.12.12.2.09.39.22.61.23l.47.02s.07.03.08.05l-.51.24-.64.17-.3.03c-.3,0-.61.03-.9-.04-.18-.04-.39-.09-.56-.17l-.3-.15c-.43-.21-.9-.7-1.46-.82.2.92-.31,1.48-.34,2.01,0,.25.08.53.29.66.02-.02.05-.02.06-.03l.07.23s-.09.07-.11.06l-.46-.12c-.45-.2-.8-.52-1.05-.94-.05-.08-.06-.2-.14-.28-.02-.02-.03-.09-.04-.12,0-.03,0-.07,0-.09,0-.03-.06-.05-.09-.03-.04.03-.04.08-.03.12l-.13.47c-.21.45-.49.84-.84,1.2l-.13.13c-.17.18-.41.31-.53.53-.01.03-.03.04-.06.07-.19.19-.3.48-.29.75v.27c0,.29.16.55.29.8-.02.04-.05.04-.09.01-.58-.36-1.02-.88-1.3-1.47l-.17-.49c-.05-.15-.07-.32-.07-.47v-.79s0-.3,0-.3c0-.32.05-.63-.13-1.01-.72.71-1.36.54-1.98.81-.37.16-.55.54-.55,1-.08-.13-.13-.25-.17-.37-.2-.72-.07-1.45.44-2.05-.45.06-.83.12-1.22.05l-.61-.12c-.2-.04-.39-.14-.59-.18-.09-.02-.18-.07-.3-.06-.32-.1-.68,0-.96.17-.2.13-.4.26-.5.49-.01.03-.03.06-.06.08-.08.07-.11.15-.16.25-.03-.16-.03-.28,0-.38l.11-.55c.09-.44.31-.85.59-1.21.35-.44.82-.76,1.35-.99.1-.04.19-.08.22-.16.01,0,.04.02.05.02.03,0,.07-.02.07-.06.01,0,.04,0,.06,0l.06-.06s.04-.05.06-.06c.23-.07.39-.26.53-.47l-.36-.08c-.1-.02-.19-.11-.31-.1,0-.02-.02-.05-.04-.07-.06-.04-.12-.06-.19-.07-.03-.11-.14-.17-.23-.16,0-.06-.05-.13-.11-.12-.21-.35-.48-.71-.85-.87-.01,0-.04,0-.06,0-.02-.02-.05-.05-.09-.05-.2,0-.54-.03-.69.14-.1,0-.09-.09-.03-.08.21-.35.53-.54.86-.72.09-.05.22-.04.3-.14.35,0,.69-.04,1.09.02-.75-.83-.74-1.7-.96-2.25-.02-.04-.06-.12-.07-.16-.06-.41-.55-.8-.97-.9-.23-.06-.48-.09-.72-.05.2-.15.44-.26.68-.34.15-.05.32-.1.47-.12.54-.09,1.09-.04,1.61.11.14.04.27.15.41.17.02.03.04.05.07.06.01,0,.03,0,.05,0,.02.1.13.1.18.13l.55.37c.23.15.46.3.78.33-.13-.3-.21-.59-.18-.89l.03-.39c.03-.35.5-.94.29-1.48-.09-.24-.26-.44-.51-.56.05-.09.11-.05.13-.05.45.04.83.28,1.22.5.02.14.15.2.22.3.21.31.34.65.52,1.04.1-.4.27-.76.51-1.09.36-.52.92-.87,1.22-1.28.57-.81,0-1.59.02-1.77l-.07.02c-.06-.04,0-.15.07-.08,0,0,.01.01.03.02.53.33.97.8,1.26,1.36ZM187.52,65.79s-.12.07-.17.07c-.15,0-.35.12-.49.18-.97.42-1.77,1.19-2.28,2.12-.39.72-.62,1.53-.59,2.34v.33c.02.3.08.6.16.88.05.18.06.39.19.53v.07c.06.22.2.46.31.66.1.17.19.32.32.47.04.04.08.1.11.15.31.4.69.76,1.12,1.02.02,0,.06.02.08.04.14.17.35.25.54.33l.47.19c.95.38,2.04.37,3.01.07.23-.07.46-.16.68-.26.94-.43,1.72-1.15,2.22-2.06l.13-.29c.04-.08.09-.15.1-.24,0-.05.07-.11.07-.17.02-.02.04-.05.05-.08,0-.01,0-.04,0-.06.05-.03.06-.08.06-.13v-.11s.05-.04.05-.06v-.12c.02-.19.1-.37.12-.56s.03-.39.03-.59v-.55s-.02-.13-.02-.13c0-.04-.01-.09-.05-.11l-.07-.4c-.07-.42-.26-.79-.46-1.16-.5-.94-1.31-1.73-2.3-2.12l-.42-.17c-.19-.08-.39-.1-.59-.15-.78-.2-1.61-.15-2.38.08Z"/>
    <path class="cls-42" d="M189.76,66.34c.37.08.73.21,1.07.38.66.33,1.19.83,1.62,1.43.09.13.14.31.26.42,0,.1.08.17.1.24l.18.49.12.59c.03.12.01.28.01.41,0,.28.03.57-.02.84-.03.16-.05.34-.11.5l-.23.61c-.26.68-.77,1.26-1.37,1.68-.05.03-.11.05-.13.12-.11.04-.21.13-.31.18-.16.07-.32.13-.47.23-.05.03-.14.05-.19.07-1.1.35-2.28.29-3.3-.23l-.6-.36c-.59-.47-1.06-1.04-1.37-1.7-.02,0-.02-.03-.01-.04l-.04-.09c-.16-.36-.19-.77-.31-1.15-.06-.2-.02-.27-.01-.47.05-1.05.4-2.03,1.08-2.8.04-.05.09-.1.14-.15.29-.28.61-.54.96-.74s.74-.34,1.14-.44c.42-.11,1.35-.11,1.8-.01Z"/>
  </g>
  <ellipse class="cls-40" cx="189.36" cy="188.31" rx="143.83" ry="142.82"/>
  <ellipse class="cls-2" cx="189.36" cy="188.31" rx="149" ry="147.95"/>
  <ellipse class="cls-40" cx="189.36" cy="190.31" rx="94.37" ry="93.71"/>
  <ellipse class="cls-2" cx="189.36" cy="190.31" rx="97.76" ry="97.07"/>
  <g>
    <path class="cls-42" d="M190.79,173.29c-.33.04-.53,0-.59-.15,5.79-1.07,11.03-3.96,15.59-7.78-2.61-2.91-5.3-5.84-8.85-7.9,1.48,3,1.24,6.46-.72,9.17-1.85,2.55-5.01,4-8.19,3.53l-.03-.15c.32,0,.63-.04.94-.09,3.48-.3,6.35-2.92,6.98-6.3.66-3.52-1.08-6.96-4.32-8.52-1.75-.46-3.45-.62-5.27-.5-2.89.73-5.09,3.04-5.7,5.9-.14.14-.19.02-.16-.37.25-1.71,1.07-3.37,2.3-4.68-.03-.13-.18-.19-.37-.12-2.78.96-5.44,2.19-7.9,3.8-1.16.76-2.16,1.63-2.98,2.7-1.22,1.61-1.2,3.58,0,5.19,1.65,2.21,4.26,3.71,6.62,5.08.15.17.07.22-.25.15-3.54-.99-8.9-3.38-9.83-7.12-.36.81-.23,1.52-.04,2.35-2.04-1.67-.73-4.35.9-6.18,1.35-1.52,2.78-2.91,4.52-4.02,4.21-2.68,8.94-4.41,13.88-5.12,4.26-.61,8.36.17,12.1,2.18,1.74.93,3.22,1.97,4.63,3.36l6.14,6.02,1.41,1.26c-5.58,4.58-13.67,7.85-20.82,8.33Z"/>
    <path class="cls-42" d="M207.96,158.5c.12.21.12.27-.13.2-6.91-7.74-16.66-12.07-26.83-8.09-2.62,1.03-4.99,2.4-7.26,4.08-.19.11-.28.09-.2-.12,2.19-1.92,4.6-3.51,7.17-4.85l.24-.13c1.45-.76,2.97-1.23,4.6-1.61,9.22-2.13,17.21,3.25,22.39,10.52Z"/>
    <path class="cls-42" d="M185.85,164.35c.96.22,1.81-.07,2.15-.91s-.14-1.73-.89-1.98c-.95-.33-1.83.21-2.08,1.22-.44-1.88.62-3.75,2.45-4.4s3.8.15,4.67,1.89c.84,1.67.34,3.75-1.23,4.84s-3.72.93-5.06-.65Z"/>
    <path class="cls-42" d="M201.02,173.85c.29-.14.33.02.1.22-1.64,1.33-3.39,2.39-5.35,3.25-7.37,3.26-15.21,1.29-21.3-3.63-.12-.2,0-.18.19-.11,8.32,5.18,18.1,5.96,26.36.26Z"/>
    <path class="cls-42" d="M188.95,169.92c-.24.28-.72,0-.91.24l-.79-.12c-.11-.09-.07-.14.12-.14l1.59.02Z"/>
    <path class="cls-42" d="M180.64,160.49c-.07.34-.14.68-.13,1.04-.23,0-.16-.37-.1-.58-.01-.29.03-.54.08-.83.02.14.04.3.16.37Z"/>
    <path class="cls-42" d="M190.21,173.14c.14.14.39.12.59.15l-1.27.09c-.22.02-.26-.03-.12-.14.27.03.54-.05.8-.1Z"/>
    <path class="cls-42" d="M180.51,161.52c.07.14,0,.4.01.55-.09.15-.16.07-.22-.23.02-.3-.09-.66.1-.91,0,.22,0,.38.1.58Z"/>
    <path class="cls-42" d="M201.11,174.07l-.1-.22c.22-.15.38-.34.74-.39-.14.31-.41.41-.65.6Z"/>
    <path class="cls-42" d="M173.75,154.69c-.24.18-.4.4-.76.47.14-.3.35-.41.56-.59l.2.12Z"/>
    <path class="cls-42" d="M207.83,158.71l.13-.2c.15.2.34.32.35.65-.22-.14-.32-.27-.47-.44Z"/>
    <path class="cls-42" d="M187.36,169.9l-.12.14-.7-.15c.29-.19.57,0,.82.01Z"/>
    <path class="cls-42" d="M177.89,172.24c.11-.01.21-.06.25-.15.16.09.34.13.46.35-.31,0-.5-.13-.72-.19Z"/>
    <path class="cls-42" d="M180.53,162.08c0,.1.03.19-.02.36-.25-.15-.21-.35-.2-.59l.22.23Z"/>
    <path class="cls-42" d="M174.66,173.59l-.19.11c-.12-.1-.24-.14-.17-.36l.37.25Z"/>
  </g>
  <circle class="cls-25" cx="189.03" cy="163.22" r="28.82"/>
  <circle class="cls-18" cx="188.8" cy="213.98" r="7.51"/>
  <circle class="cls-18" cx="188.8" cy="235.58" r="7.51"/>
  <line class="cls-25" x1="188.8" y1="242.79" x2="188.8" y2="192.85"/>
  <g>
    <polygon class="cls-42" points="182.84 130.65 182.85 119.22 184.83 130.48 182.84 130.65 182.84 130.65"/>
    <polygon class="cls-42" points="179.3 131.61 178.08 123.54 181.23 131.07 179.3 131.61 179.3 131.61"/>
    <polygon class="cls-42" points="175.7 133.03 168.79 114.25 177.54 132.24 175.7 133.03 175.7 133.03"/>
  </g>
  <g>
    <polygon class="cls-42" points="171.9 135.02 167.95 124.29 173.71 134.17 171.9 135.02 171.9 135.02"/>
    <polygon class="cls-42" points="168.92 137.15 164.97 130 170.54 135.97 168.92 137.15 168.92 137.15"/>
    <polygon class="cls-42" points="166.03 139.73 153.03 124.52 167.48 138.35 166.03 139.73 166.03 139.73"/>
  </g>
  <g>
    <polygon class="cls-42" points="162.48 143.82 154.76 135.38 163.83 142.35 162.48 143.82 162.48 143.82"/>
    <polygon class="cls-42" points="160.53 146.92 154.17 141.8 161.58 145.22 160.53 146.92 160.53 146.92"/>
    <polygon class="cls-42" points="158.83 150.4 141.04 141.24 159.65 148.58 158.83 150.4 158.83 150.4"/>
  </g>
  <g>
    <polygon class="cls-42" points="157.04 155.75 146.67 150.93 157.72 153.87 157.04 155.75 157.04 155.75"/>
    <polygon class="cls-42" points="156.43 159.36 148.58 157.08 156.75 157.38 156.43 159.36 156.43 159.36"/>
    <polygon class="cls-42" points="156.2 163.22 136.25 161.61 156.26 161.22 156.2 163.22 156.2 163.22"/>
  </g>
  <g>
    <polygon class="cls-42" points="156.41 167.51 145.01 166.59 156.4 165.51 156.41 167.51 156.41 167.51"/>
    <polygon class="cls-42" points="157.09 171.11 148.94 171.69 156.7 169.15 157.09 171.11 157.09 171.11"/>
    <polygon class="cls-42" points="158.21 174.81 138.95 180.22 157.58 172.92 158.21 174.81 158.21 174.81"/>
  </g>
  <g>
    <polygon class="cls-42" points="160.44 179.75 149.54 183.21 159.67 177.91 160.44 179.75 160.44 179.75"/>
    <polygon class="cls-42" points="162.43 182.83 155.11 186.45 161.33 181.16 162.43 182.83 162.43 182.83"/>
    <polygon class="cls-42" points="164.87 185.83 149.08 198.12 163.56 184.32 164.87 185.83 164.87 185.83"/>
  </g>
  <g>
    <polygon class="cls-42" points="167.44 188.42 158.28 195.27 166.1 186.93 167.44 188.42 167.44 188.42"/>
    <polygon class="cls-42" points="170.33 190.67 164.6 196.5 168.74 189.46 170.33 190.67 170.33 190.67"/>
    <polygon class="cls-42" points="173.62 192.71 162.75 209.5 171.89 191.7 173.62 192.71 173.62 192.71"/>
  </g>
  <g>
    <polygon class="cls-42" points="177.5 194.55 171.29 204.15 175.73 193.61 177.5 194.55 177.5 194.55"/>
    <polygon class="cls-42" points="180.99 195.66 177.64 203.1 179.08 195.07 180.99 195.66 180.99 195.66"/>
    <polygon class="cls-42" points="184.78 196.42 180.42 215.94 182.81 196.08 184.78 196.42 184.78 196.42"/>
  </g>
  <polygon class="cls-42" points="193.84 196.51 193.56 204.67 191.84 196.68 193.84 196.51 193.84 196.51"/>
  <polygon class="cls-42" points="197.64 195.78 200.99 215.5 195.69 196.21 197.64 195.78 197.64 195.78"/>
  <g>
    <polygon class="cls-42" points="202.25 194.31 204.34 205.55 200.32 194.85 202.25 194.31 202.25 194.31"/>
    <polygon class="cls-42" points="205.54 192.71 208.24 200.42 203.75 193.6 205.54 192.71 205.54 192.71"/>
    <polygon class="cls-42" points="208.82 190.66 219.08 207.83 207.16 191.77 208.82 190.66 208.82 190.66"/>
  </g>
  <g>
    <polygon class="cls-42" points="212.19 188 218.05 197.81 210.57 189.17 212.19 188 212.19 188"/>
    <polygon class="cls-42" points="214.72 185.35 219.93 191.65 213.35 186.81 214.72 185.35 214.72 185.35"/>
    <polygon class="cls-42" points="217.09 182.29 232.67 194.83 215.91 183.91 217.09 182.29 217.09 182.29"/>
  </g>
  <g>
    <polygon class="cls-42" points="219.82 177.61 228.96 184.47 218.76 179.31 219.82 177.61 219.82 177.61"/>
    <polygon class="cls-42" points="221.17 174.2 228.36 178.06 220.44 176.07 221.17 174.2 221.17 174.2"/>
    <polygon class="cls-42" points="222.19 170.47 241.37 176.19 221.72 172.41 222.19 170.47 222.19 170.47"/>
  </g>
  <g>
    <polygon class="cls-42" points="222.89 166.01 233.87 169.21 222.5 167.98 222.89 166.01 222.89 166.01"/>
    <polygon class="cls-42" points="222.95 162.35 231.05 163.42 222.93 164.35 222.95 162.35 222.95 162.35"/>
    <polygon class="cls-42" points="222.59 158.5 242.55 157.08 222.84 160.48 222.59 158.5 222.59 158.5"/>
  </g>
  <g>
    <polygon class="cls-42" points="221.74 154.29 233.14 153.48 222.05 156.27 221.74 154.29 221.74 154.29"/>
    <polygon class="cls-42" points="220.52 150.84 228.49 149.03 221.2 152.72 220.52 150.84 220.52 150.84"/>
    <polygon class="cls-42" points="218.85 147.35 237.07 139.09 219.76 149.12 218.85 147.35 218.85 147.35"/>
  </g>
  <g>
    <polygon class="cls-42" points="215.9 142.8 226.15 137.73 216.94 144.51 215.9 142.8 215.9 142.8"/>
    <polygon class="cls-42" points="213.47 140.06 220.16 135.38 214.81 141.55 213.47 140.06 213.47 140.06"/>
    <polygon class="cls-42" points="210.6 137.46 224.35 122.92 212.12 138.76 210.6 137.46 210.6 137.46"/>
  </g>
  <g>
    <polygon class="cls-42" points="207.21 134.99 215.09 126.71 208.77 136.24 207.21 134.99 207.21 134.99"/>
    <polygon class="cls-42" points="203.98 133.26 208.65 126.56 205.75 134.19 203.98 133.26 203.98 133.26"/>
    <polygon class="cls-42" points="200.39 131.81 208.29 113.43 202.27 132.51 200.39 131.81 200.39 131.81"/>
  </g>
  <polygon class="cls-42" points="196.26 130.64 200.78 120.14 198.16 131.27 196.26 130.64 196.26 130.64"/>
  <polygon class="cls-42" points="187.03 134.38 189.4 101.35 191.03 134.42 187.03 134.38 187.03 134.38"/>
  <polygon class="cls-42" points="192.64 130.13 194.69 122.23 194.62 130.4 192.64 130.13 192.64 130.13"/>
  <circle class="cls-39" cx="189.58" cy="163.39" r="33.36"/>
  <path class="cls-4" d="M281.53,273.86l-78.19,4.66c-8.03,4.62-19.89,4.64-28.2.18l-42.85-2.71-33.44-2.13c-.55-.03-1.03-.48-.68-.92l29.5-36.67,2.49-.15,5.86-8.82,3.57-.05,1.75-3.2c13.28,1.07,26.05,3.99,37.38,8.92,4.16,1.81,7.56,3.88,10.66,6.69,5.98-5.73,15.33-8.87,24.68-11.31,7.75-1.93,15.56-3.21,23.6-4.11l1.68,2.97,3.93-.17,5.73,8.64,2.23.27,30.29,37.91Z"/>
  <g>
    <path class="cls-21" d="M188.77,269.77c-5.37-3.86-11.38-6.94-18.18-9.49-6.35-2.43-12.74-4.27-19.59-5.92-7.52-1.76-14.93-3.12-22.76-4.2l13.74-25.41c13.45,1.64,27.33,4.53,38.61,9.84,3.21,1.66,6.1,3.41,8.21,5.84l-.03,29.34Z"/>
    <path class="cls-21" d="M207.5,260.41c-6.56,2.56-12.28,5.43-17.56,9.23v-29.4c3.79-3.42,8.31-5.79,13.51-7.79,10.42-3.87,21.72-5.86,33.36-7.41l13.49,24.9c-8.76,1.31-17.05,2.88-25.35,5-6.05,1.6-11.65,3.23-17.45,5.48Z"/>
    <path class="cls-21" d="M176.75,276.23l-25.48-1.6-43.52-2.81c24.88-2.58,51.25-4.38,75.61.72-1.73,1.75-3.83,2.8-6.61,3.7Z"/>
    <path class="cls-21" d="M221.7,274.92l-20.52,1.23c-2.33-1.09-4.45-2.16-6.37-3.78,7.09-1.53,13.85-2.29,20.99-2.74,10.33-.66,20.33-.37,30.69.39l21.06,2.14-45.85,2.76Z"/>
    <path class="cls-21" d="M198.56,269.36c-.95.21-1.01.08-.29-.42,9.29-2.9,19.22-5.72,29.38-5.96,12.81-.3,25.23.91,37.73,3.36l-5.07-8.01c1.3-.1,2.11-.09,2.88-.52l-4.16-6.66c-.3-.57-.13-.79.52-.36l15.76,20.13c-18.3-3.09-35.92-5.34-54.42-4.5-7.71.38-15.14,1.09-22.33,2.94Z"/>
    <path class="cls-21" d="M121.9,248.92l-5.82,9.52c1.2.43,2.28.21,3.32.35l-4.7,7.52c15.1-2.23,30.1-3.03,45.25-1.63,7.82.72,14.84,2.71,21.98,4.84.48.27.26.36-.68.28-11.21-2.39-22.59-3.35-34.38-3.25-9.37.09-18.32.64-27.46,1.93l-15.5,2.18,17.58-22.22c.51-.35.64-.19.41.47Z"/>
    <path class="cls-21" d="M132.02,236.79l-10.75,20.4c17.33-.24,33.36,2.01,49.74,5.14-8.8-3.66-17.85-5.72-26.81-8.24-.24-.21-.03-.3.65-.27,10.82,2.24,21.27,5.15,30.76,9.5,4.51,2.06,8.74,4.04,12.33,7.23-22.38-7.17-45.48-10.94-70.35-12.66l14.08-21.82c.52-.18.64.07.37.73Z"/>
    <path class="cls-21" d="M241.71,228.16c-.36-.03-.37-.12-.06-.27.73-.11,1.05.09,1.41.65l18.55,28.93c-24.3,1.67-46.66,5.09-69.15,12.44,5-3.03,10.74-4.58,16.53-6.51,12.51-3.67,25.37-6.13,38.7-7.85l8.31-1.07-14.27-26.32Z"/>
    <path class="cls-7" d="M195.56,271.48c-.93.07-1.13-.06-.62-.4,10.38-2.67,21.04-3.93,32.14-4.08,9.51-.13,18.65.35,27.96,1.7l18.96,2.76c-.42.56-.83.4-1.34.35l-12.08-1.22c-20.13-2.03-41.3-3.31-61.12.1l-3.91.79Z"/>
    <path class="cls-38" d="M192.17,272.25c1.31.44,2.44,1.14,3.38,2.11.33.1.6.26.79.45.81.53,1.71,1.06,2.7,1.59.72,0,1,.6.2.79-.34.37-1.25.8-1.79.54-1.12.82-4.12,1.57-5.6,1.06-1.54.21-3.17.24-4.88.09-2.08.12-5.68-.45-7.5-1.28-1.71-.78-1.21-1.07.46-1.22.67-.61,1.53-1.18,2.6-1.72l1.47-1.22c.46-.27.77-.37,1.02-.81,1.06-.71,2.22-1.12,3.48-1.25.77-.66,3.4.11,3.66.88Z"/>
    <path class="cls-7" d="M118.99,269.91c-1.07.08-1.52-.05-1.33-.41,9.12-1.06,17.99-2.03,27.36-2.15,13.57-.18,27.14.72,39.99,4.37-11.45-1.73-22.16-3.13-33.72-3.18-10.94-.05-21.51.5-32.29,1.37Z"/>
    <path class="cls-27" d="M231.27,254.3c.87-.12,1.06,0,.57.39-11.39,2.89-23.48,6.9-33.63,11.41-.78.19-.88,0-.25-.39,8.97-5.08,22.18-9.01,33.3-11.41Z"/>
    <path class="cls-9" d="M179.55,276.08c.58-.31.77-.15.39.3-.34.15-.69.32-1.11.68,2.57.97,5.37,1.37,8.15,1.82,1.66.02,3.28.08,4.87.17.42-.26.62-.14.37.24l-6.27-.05c-3.16-.28-6.15-.88-8.64-2.38l2.23-.79Z"/>
    <path class="cls-37" d="M197.78,278.13c-1.55.58-3.68,1.17-5.56,1.16-.02-.08-.21-.24-.37-.24-.32-.08-.32-.17,0-.26,1.93,0,3.79-.55,5.6-1.06.69-.17.83.01.33.4Z"/>
    <path class="cls-10" d="M184.01,273.43c-.55,1.34-2.42,2.23-4.07,2.95l-.39-.3,4.46-2.64Z"/>
    <path class="cls-14" d="M192.75,272.06c.21.49.02.42-.58.19-1.05-.59-2.37-.99-3.66-.88-.97.28-1.23.19-.78-.27,1.84-.65,3.68.06,5.02.96Z"/>
    <path class="cls-28" d="M195.55,274.36c-1.39-.41-2.25-1.47-3.38-2.11l.58-.19c.99.66,2.62,1.21,2.8,2.31Z"/>
    <path class="cls-19" d="M117.66,269.5c.19.34.86.35,1.33.41l-4.46.36-.02-.4,3.14-.36Z"/>
    <path class="cls-30" d="M199.27,276.16c.21.2.13.27-.22.24-1.09-.29-2.03-.79-3.02-1.41,0-.12.14-.19.32-.19,1.04.17,2.01.94,2.92,1.35Z"/>
    <path class="cls-35" d="M188.51,271.37l-1.9.77c-.62.25-.99.58-1.58.48.43-.78,1.7-1.17,2.69-1.52.14.24.46.3.78.27Z"/>
    <path class="cls-22" d="M133.12,234.62c-.16.81-.7,1.42-1.1,2.17-.04-.31-.12-.52-.37-.73.38-.59.51-1.11,1.18-1.62.3-.12.39-.05.28.18Z"/>
    <path class="cls-22" d="M198.21,266.1c-.66.29-1.08,1-2.33.79l2.08-1.18c-.05.21.03.33.25.39Z"/>
    <path class="cls-31" d="M198.56,269.36l-2.63.68c-.33-.08-.32-.18,0-.29.79-.45,1.53-.54,2.35-.8l.29.42Z"/>
    <path class="cls-21" d="M199.25,277.19c.27.06.26.14-.01.24-.13.57-1.02.53-1.46.69l-.33-.4c.57-.16,1.06-.6,1.79-.54Z"/>
    <path class="cls-21" d="M121.9,248.92l-.41-.47c.38-.48.42-.95,1.16-1.23.23.75-.42,1.15-.76,1.71Z"/>
    <path class="cls-37" d="M199.23,277.44v-.24s-.19-.79-.19-.79l.22-.24.79.35c.37.17.34.39.01.59-.2.13-.61.25-.83.33Z"/>
    <path class="cls-33" d="M231.84,254.69c-.1-.21-.38-.28-.57-.39.75-.16,1.43-.64,2.31-.05l-1.74.44Z"/>
    <path class="cls-20" d="M143.62,253.6c-.04.21-.36.28-.96.21-.45-.13-1.13-.02-1.57-.57.93-.33,1.73.22,2.53.36Z"/>
    <path class="cls-11" d="M235.27,253.91l-1.2.2c-.18.03-.5-.24-.58-.48.99.06,1.46-.3,1.87-.17.33.11.45.36-.09.45Z"/>
    <path class="cls-6" d="M111.16,270.66c-.7.02-.66-.17.03-.32.72-.09,1.44-.36,2.22-.21v.35s-2.25.17-2.25.17Z"/>
    <path class="cls-3" d="M237.94,253.22c-.19.14-1.75.5-1.87.25-.11-.23.07-.38.23-.38l.86-.02c.27,0,.48-.25.62-.22.24.05.26.3.16.37Z"/>
    <path class="cls-12" d="M111.19,270.34l-.03.32c-.68.05-1.31.12-1.84.27-.63.11-.75,0-.24-.31l2.11-.27Z"/>
    <path class="cls-23" d="M181.25,269.8l.68-.28c.7.21,1.36.25,1.8.76-1.01.03-1.62-.3-2.47-.48Z"/>
    <path class="cls-23" d="M133.12,234.62l-.28-.18c-.05-.48.15-1.04,1.01-.99l-.73,1.17Z"/>
    <path class="cls-5" d="M134.02,232.14c.68-.43.34.89.02,1.06-.17.09-.5.01-.56-.14-.05-.14.4-.84.54-.92Z"/>
    <path class="cls-32" d="M259.54,250.79c-.32,0-.44.22-.52.36-.25-.41-.96-.8-.12-1.28.35.21.37.59.63.92Z"/>
    <path class="cls-24" d="M143.62,253.6l1.22.21-.65.27c-.59-.02-.99-.11-1.53-.27.25-.14.56-.22.96-.21Z"/>
    <path class="cls-1" d="M137.97,252.79c-.25-.17-.19-.25.16-.25.22.07.86-.04,1.12,0,.2.03.38.35.08.48-.42.11-1.01-.17-1.36-.24Z"/>
    <path class="cls-17" d="M109.31,270.92c-.69.18-1.3.34-1.89.03.67-.14,1.15-.28,1.65-.35l.24.31Z"/>
    <path class="cls-16" d="M195.92,269.74v.29c-.49.13-.92.5-1.59.44.24-.75,1.26-.55,1.59-.73Z"/>
    <path class="cls-15" d="M138.12,252.54l-.16.25-1.91-.36c.82-.34,1.38-.1,2.07.12Z"/>
    <path class="cls-29" d="M240.88,252.24c.62-.13.74-.07.28.28l-1.76.3c.29-.65,1.02-.45,1.48-.58Z"/>
    <path class="cls-13" d="M195.56,271.48c-.64.13-1.3.34-1.89,0l1.27-.41c.05.23.38.32.62.4Z"/>
    <path class="cls-8" d="M256.59,246.96c.55.23-.1.5-.26.29l-.47-.62c.32-.4.89-.05.73.33Z"/>
    <path class="cls-26" d="M241.65,227.88c0,.09.02.19.06.27-.65.01-1.32.11-1.94-.14.74-.23,1.35-.12,1.88-.14Z"/>
    <path class="cls-34" d="M241.16,252.52l-.28-.28c.5-.14,1-.44,1.57-.07l-1.29.35Z"/>
    <path class="cls-36" d="M191.86,278.79v.26c-1.67.02-3.26.09-4.88-.17l4.88-.09Z"/>
  </g>
  <g>
    <path class="cls-42" d="M82.25,196.52c-2.04,1.95-4.56,3.27-7.35,3.88-9.15,2-18.28-4.33-19.6-13.65-.68-4.82.93-9.59,4.34-12.97,4.42-4.38,11.2-5.64,17.13-3.21.16.07.26.23.23.34-.05.17-.18.24-.37.24-4.01-.11-7.78,1.55-10.29,4.61l-1.28,1.9c-2.62,4.74-1.81,10.67,1.77,14.73,3.85,4.37,9.98,5.8,15.2,3.62.11-.05.26.1.31.16.06.08.05.24-.08.36Z"/>
    <path class="cls-42" d="M74.76,181.98c.29-.93,1.16-2.14.65-3.12-.46-.88-1.14-1.32-1.78-1.97l1.27.58c.54.25,1.16.42,1.74.26.54-.15.94-.55,1.34-.93.29-.26.45-.6.82-.81l-.71,1.62c-.3.69-.19,1.46.34,2.03l.63.69.78.75c-.29-.06-.5-.27-.79-.39l-.93-.37c-.76-.31-1.55-.15-2.12.39l-.64.61c-.2.2-.31.41-.61.65Z"/>
    <path class="cls-42" d="M69.38,187.58l.47-1.13c.22-.54.03-1.02-.39-1.43l-.73-.73.9.37c.76.32,1.36.1,1.89-.51.16-.19.25-.41.51-.5,0,.3-.18.48-.29.72-.32.7-.31,1.29.24,1.85l.73.74-1.02-.44c-.55-.24-1.09-.14-1.5.27l-.8.79Z"/>
    <path class="cls-42" d="M78.43,190.18l.34-.97c.28-.81-.49-1.34-.98-1.95l.83.31c1.07.4,1.54-.3,2.29-1.04l-.39.94c-.4.95.15,1.45.86,2.18-.34,0-.61-.2-.93-.29-1.04-.29-1.24.3-2.02.83Z"/>
    <path class="cls-42" d="M86.29,183.23c-.11-.31-.44-.47-.6-.7.15-.04.28.04.4.1.64.34.89-.19,1.11-.18.04,0,.13.06.11.09l-.12.13c-.11.36.06.66.27,1.05-.46-.15-.81-.16-1.15.17v-.65Z"/>
  </g>
  <path class="cls-40" d="M33.69,172.45c3.69-35.86,19.79-69.37,45.54-94.78,25.54-25.2,59.04-40.93,94.86-44.53"/>
  <path class="cls-40" d="M174.08,344.56c-35.86-3.69-69.37-19.79-94.78-45.54-25.2-25.54-40.93-59.04-44.53-94.86"/>
  <path class="cls-40" d="M346.19,172.45c-3.69-35.86-19.79-69.37-45.54-94.78-25.54-25.2-59.04-40.93-94.86-44.53"/>
  <path class="cls-40" d="M205.8,344.56c35.86-3.69,69.37-19.79,94.78-45.54,25.2-25.54,40.93-59.04,44.53-94.86"/>
  <path class="cls-42" d="M189.39,42.29c-1.43.2-1.25-2.72-1.86-3.39-.86-.87-2.51-.45-2.96-2.51.98-.04,1.82-.55,2.77-1.14.86-.53,1.62-2.93.71-3.45l-3.68-.33c-.4-.04-.32-1.13-.14-1.37.24-.33,1.11-.38,1.58-.53.25-2.42-.46-5.68-2.13-7.06-.93-.77-2.04-1.09-2.94-.39-.76.59-1.23,2.15-1.1,3.92-2.06-.02-3.66-2.36-4.06-4.54-.55-3.01.21-5.85,2.22-7.21,2.54-1.71,5.36-.08,6.83,3.02,2.7,5.72,2.23,11.71,2.86,12.36,1.83,1.88.42-8.18-1.91-14.94-1.81-5.26-.03-12.5,3.72-14.72,4.13,2.84,5.35,9.75,3.61,14.98-1.56,4.69-2.5,9.22-2.73,14.33-.03.55,1.13.65,1.18,0,.32-4.34.9-8.41,2.61-12,1.42-3,4.1-4.64,6.62-3.16,2.07,1.21,2.93,3.98,2.51,6.99-.34,2.37-1.97,4.79-4.12,4.89.1-1.65-.28-3.06-.91-3.73-.87-.93-2.15-.7-3.14.16-1.66,1.44-2.37,4.67-2.13,7.07.41.2,1.16.29,1.42.36.31.08.46,1.23.05,1.54l-3.98.26c-.36,1.78.25,3.42,1.45,3.87l2.32.87c-.57,1.89-2,1.67-3.03,2.36-.4.85-.49,3.33-1.62,3.49Z"/>
  <path class="cls-42" d="M188.89,334.33c-1.43-.2-1.25,2.72-1.86,3.39-.86.87-2.51.45-2.96,2.51.98.04,1.82.55,2.77,1.14.86.53,1.62,2.93.71,3.45l-3.68.33c-.4.04-.32,1.13-.14,1.37.24.33,1.11.38,1.58.53.25,2.42-.46,5.68-2.13,7.06-.93.77-2.04,1.09-2.94.39-.76-.59-1.23-2.15-1.1-3.92-2.06.02-3.66,2.36-4.06,4.54-.55,3.01.21,5.85,2.22,7.21,2.54,1.71,5.36.08,6.83-3.02,2.7-5.72,2.23-11.71,2.86-12.36,1.83-1.88.42,8.18-1.91,14.94-1.81,5.26-.03,12.5,3.72,14.72,4.13-2.84,5.35-9.75,3.61-14.98-1.56-4.69-2.5-9.22-2.73-14.33-.03-.55,1.13-.65,1.18,0,.32,4.34.9,8.41,2.61,12,1.42,3,4.1,4.64,6.62,3.16,2.07-1.21,2.93-3.98,2.51-6.99-.34-2.37-1.97-4.79-4.12-4.89.1,1.65-.28,3.06-.91,3.73-.87.93-2.15.7-3.14-.16-1.66-1.44-2.37-4.67-2.13-7.07.41-.2,1.16-.29,1.42-.36.31-.08.46-1.23.05-1.54l-3.98-.26c-.36-1.78.25-3.42,1.45-3.87l2.32-.87c-.57-1.89-2-1.67-3.03-2.36-.4-.85-.49-3.33-1.62-3.49Z"/>
  <path class="cls-42" d="M42.29,187.97c.2,1.43-2.72,1.25-3.39,1.86-.87.86-.45,2.51-2.51,2.96-.04-.98-.55-1.82-1.14-2.77-.53-.86-2.93-1.62-3.45-.71l-.33,3.68c-.04.4-1.13.32-1.37.14-.33-.24-.38-1.11-.53-1.58-2.42-.25-5.68.46-7.06,2.13-.77.93-1.09,2.04-.39,2.94.59.76,2.15,1.23,3.92,1.1-.02,2.06-2.36,3.66-4.54,4.06-3.01.55-5.85-.21-7.21-2.22-1.71-2.54-.08-5.36,3.02-6.83,5.72-2.7,11.71-2.23,12.36-2.86,1.88-1.83-8.18-.42-14.94,1.91-5.26,1.81-12.5.03-14.72-3.72,2.84-4.13,9.75-5.35,14.98-3.61,4.69,1.56,9.22,2.5,14.33,2.73.55.03.65-1.13,0-1.18-4.34-.32-8.41-.9-12-2.61-3-1.42-4.64-4.1-3.16-6.62,1.21-2.07,3.98-2.93,6.99-2.51,2.37.34,4.79,1.97,4.89,4.12-1.65-.1-3.06.28-3.73.91-.93.87-.7,2.15.16,3.14,1.44,1.66,4.67,2.37,7.07,2.13.2-.41.29-1.16.36-1.42.08-.31,1.23-.46,1.54-.05l.26,3.98c1.78.36,3.42-.25,3.87-1.45l.87-2.32c1.89.57,1.67,2,2.36,3.03.85.4,3.33.49,3.49,1.62Z"/>
  <path class="cls-42" d="M336.58,188.46c-.2,1.43,2.72,1.25,3.39,1.86.87.86.45,2.51,2.51,2.96.04-.98.55-1.82,1.14-2.77.53-.86,2.93-1.62,3.45-.71l.33,3.68c.04.4,1.13.32,1.37.14.33-.24.38-1.11.53-1.58,2.42-.25,5.68.46,7.06,2.13.77.93,1.09,2.04.39,2.94-.59.76-2.15,1.23-3.92,1.1.02,2.06,2.36,3.66,4.54,4.06,3.01.55,5.85-.21,7.21-2.22,1.71-2.54.08-5.36-3.02-6.83-5.72-2.7-11.71-2.23-12.36-2.86-1.88-1.83,8.18-.42,14.94,1.91,5.26,1.81,12.5.03,14.72-3.72-2.84-4.13-9.75-5.35-14.98-3.61-4.69,1.56-9.22,2.5-14.33,2.73-.55.03-.65-1.13,0-1.18,4.34-.32,8.41-.9,12-2.61,3-1.42,4.64-4.1,3.16-6.62-1.21-2.07-3.98-2.93-6.99-2.51-2.37.34-4.79,1.97-4.89,4.12,1.65-.1,3.06.28,3.73.91.93.87.7,2.15-.16,3.14-1.44,1.66-4.67,2.37-7.07,2.13-.2-.41-.29-1.16-.36-1.42-.08-.31-1.23-.46-1.54-.05l-.26,3.98c-1.78.36-3.42-.25-3.87-1.45l-.87-2.32c-1.89.57-1.67,2-2.36,3.03-.85.4-3.33.49-3.49,1.62Z"/>
  <path class="cls-18" d="M96.55,159.71l-43.94-15.8,43.94,15.8Z"/>
</svg>