<?xml version="1.0" encoding="UTF-8"?>
<svg id="Camada_1" data-name="Camada 1" xmlns="http://www.w3.org/2000/svg" viewBox="0 0 455.15 153.97">
  <defs>
    <style>
      .cls-1 {
        font-family: TimesNewRomanPS-BoldMT, 'Times New Roman';
        font-size: 25.93px;
        font-weight: 700;
        letter-spacing: .2em;
      }

      .cls-1, .cls-2, .cls-3 {
        fill: rgb(138, 99, 39);
      }

      .cls-4 {
        letter-spacing: .56em;
      }

      .cls-5 {
        letter-spacing: .6em;
      }

      .cls-3 {
        font-family: TimesNewRomanPSMT, 'Times New Roman';
        font-size: 32.79px;
      }
    </style>
  </defs>
  <g>
    <text class="cls-3" transform="translate(85.09 143.91)"><tspan class="cls-5" x="0" y="0">ACADEM</tspan><tspan class="cls-4" x="260.15" y="0">Y</tspan></text>
    <path class="cls-2" d="M384.08,133.69c15.55.31,30.91.25,46.34-.26.14,0,.2-.68.08-.71l-.63-.16-45.71-.26c-.2-.19-.27-1.02-.45-1.13-.22-.13-.68.12-.99.3-.41.24-.76-.13-.88-.34-.21-.35.36-.68.71-.72.4-.7-.29-1.43-.77-1.67-.62-.31-1.63-.21-2.07.25-.62.65-.59,1.38-.26,2.43-1.16-.33-3.31.38-3.21,1.61.11,1.33,2.11,1.82,3.21,1.53-.28.92-.36,1.62.09,2.27.4.58,1.34.67,2.08.49.52-.13,1.2-1.03,1.01-1.61-.05-.17-.68-.24-.8-.36-.17-.17-.03-.59.18-.72.83-.49,1.17.32,1.5.21.23-.07.44-.42.54-1.18Z"/>
    <path class="cls-2" d="M69.48,133.69c-15.55.31-30.91.25-46.34-.26-.14,0-.2-.68-.08-.71l.63-.16,45.71-.26c.2-.19.27-1.02.45-1.13.22-.13.68.12.99.3.41.24.76-.13.88-.34.21-.35-.36-.68-.71-.72-.4-.7.29-1.43.77-1.67.62-.31,1.63-.21,2.07.25.62.65.59,1.38.26,2.43,1.16-.33,3.31.38,3.21,1.61-.11,1.33-2.11,1.82-3.21,1.53.28.92.36,1.62-.09,2.27-.4.58-1.34.67-2.08.49-.52-.13-1.2-1.03-1.01-1.61.05-.17.68-.24.8-.36.17-.17.03-.59-.18-.72-.83-.49-1.17.32-1.5.21-.23-.07-.44-.42-.54-1.18Z"/>
  </g>
  <g>
    <path class="cls-2" d="M280.4,13.59c17.94.36,35.67.29,53.47-.3.16,0,.23-.78.09-.82l-.72-.18-52.75-.3c-.23-.22-.31-1.18-.51-1.3-.25-.15-.79.13-1.14.34-.48.28-.87-.15-1.02-.39-.24-.41.42-.79.82-.83.46-.81-.33-1.65-.88-1.92-.72-.36-1.88-.24-2.39.29-.72.75-.68,1.59-.3,2.81-1.34-.39-3.82.44-3.7,1.85.13,1.53,2.43,2.1,3.7,1.77-.32,1.06-.42,1.87.11,2.62.47.67,1.55.77,2.4.57.61-.15,1.38-1.19,1.17-1.86-.06-.2-.79-.28-.92-.41-.19-.19-.04-.68.21-.83.96-.57,1.35.36,1.74.24.26-.08.51-.49.63-1.36Z"/>
    <path class="cls-2" d="M181.22,13.59c-17.94.36-35.67.29-53.47-.3-.16,0-.23-.78-.09-.82l.72-.18,52.75-.3c.23-.22.31-1.18.51-1.3.25-.15.79.13,1.14.34.48.28.87-.15,1.02-.39.24-.41-.42-.79-.82-.83-.46-.81.33-1.65.88-1.92.72-.36,1.88-.24,2.39.29.72.75.68,1.59.3,2.81,1.34-.39,3.82.44,3.7,1.85-.13,1.53-2.43,2.1-3.7,1.77.32,1.06.42,1.87-.11,2.62-.47.67-1.55.77-2.4.57-.61-.15-1.38-1.19-1.17-1.86.06-.2.79-.28.92-.41.19-.19.04-.68-.21-.83-.96-.57-1.35.36-1.74.24-.26-.08-.51-.49-.63-1.36Z"/>
    <text class="cls-1" transform="translate(198.24 21.55)"><tspan x="0" y="0">THE</tspan></text>
  </g>
  <path class="cls-2" d="M194.13,64.13h0c0,6.09,4.93,11.02,11.02,11.02h0c-6.09,0-11.02,4.93-11.02,11.02h0c0-6.09-4.93-11.02-11.02-11.02h0c6.09,0,11.02-4.93,11.02-11.02Z"/>
  <path class="cls-2" d="M38.17,28.48c9.92,0,18.52,3.77,25.79,11.3,7.27,7.54,10.91,16.94,10.91,28.22s-3.66,21.25-10.99,28.92c-7.33,7.67-16.2,11.5-26.61,11.5s-19.37-3.74-26.53-11.22S0,80.04,0,68.17s4.13-22.04,12.4-29.71c7.18-6.65,15.77-9.98,25.77-9.98ZM37.1,32.59c-6.84,0-12.33,2.54-16.46,7.61-5.15,6.31-7.72,15.56-7.72,27.74s2.67,22.08,8.01,28.81c4.1,5.11,9.51,7.67,16.24,7.67,7.18,0,13.11-2.8,17.79-8.4,4.68-5.6,7.02-14.43,7.02-26.5,0-13.08-2.58-22.83-7.72-29.26-4.14-5.11-9.85-7.67-17.14-7.67Z"/>
  <path class="cls-2" d="M157.35,106.67h-20.41l-25.88-35.74c-1.92.08-3.48.11-4.68.11-.49,0-1.02,0-1.58-.03-.56-.02-1.15-.05-1.75-.08v22.21c0,4.81.53,7.8,1.58,8.96,1.43,1.65,3.57,2.48,6.43,2.48h2.99v2.09h-32.76v-2.09h2.88c3.23,0,5.54-1.05,6.93-3.16.79-1.17,1.18-3.93,1.18-8.29v-49.39c0-4.81-.53-7.8-1.58-8.96-1.47-1.65-3.65-2.48-6.54-2.48h-2.88v-2.09h27.85c8.12,0,14.1.59,17.96,1.78,3.85,1.18,7.12,3.36,9.81,6.54,2.69,3.18,4.03,6.96,4.03,11.36,0,4.7-1.53,8.78-4.59,12.23-3.06,3.46-7.81,5.9-14.24,7.33l15.79,21.93c3.61,5.04,6.71,8.38,9.3,10.04,2.59,1.65,5.98,2.71,10.15,3.16v2.09ZM103.06,67.38c.71,0,1.33,0,1.86.03.53.02.96.03,1.3.03,7.29,0,12.79-1.58,16.49-4.74,3.7-3.16,5.55-7.18,5.55-12.07s-1.49-8.65-4.48-11.64c-2.99-2.99-6.94-4.48-11.87-4.48-2.18,0-5.13.36-8.85,1.07v31.8Z"/>
  <path class="cls-2" d="M194.62,46.01l-20.24,47.13c-1.28,2.97-1.92,5.19-1.92,6.65,0,1.17.55,2.19,1.66,3.07,1.11.88,3.5,1.46,7.19,1.72v2.09h-24.07v-2.09c3.19-.56,5.26-1.3,6.2-2.2,1.92-1.8,4.04-5.47,6.37-10.99l26.89-62.92h1.97l26.61,63.59c2.14,5.11,4.09,8.43,5.84,9.95,1.75,1.52,4.18,2.38,7.3,2.57v2.09h-30.16v-2.09c3.04-.15,5.1-.66,6.17-1.52,1.07-.86,1.61-1.92,1.61-3.16,0-1.65-.75-4.27-2.26-7.84l-19.17-46.06"/>
  <path class="cls-2" d="M309.24,28.48l1.75,25.99h-1.75c-2.33-7.78-5.66-13.38-9.98-16.8-4.32-3.42-9.51-5.13-15.56-5.13-5.07,0-9.66,1.29-13.76,3.86-4.1,2.58-7.32,6.68-9.67,12.32-2.35,5.64-3.52,12.65-3.52,21.03,0,6.92,1.11,12.91,3.33,17.99s5.55,8.96,10.01,11.67c4.45,2.71,9.54,4.06,15.25,4.06,4.96,0,9.34-1.06,13.14-3.19,3.8-2.12,7.97-6.34,12.52-12.66l1.75,1.13c-3.83,6.8-8.31,11.78-13.42,14.94-5.11,3.16-11.18,4.74-18.21,4.74-12.67,0-22.48-4.7-29.43-14.09-5.19-6.99-7.78-15.22-7.78-24.69,0-7.63,1.71-14.64,5.13-21.03,3.42-6.39,8.13-11.34,14.12-14.86,5.99-3.51,12.54-5.27,19.65-5.27,5.53,0,10.97,1.35,16.35,4.06,1.58.83,2.71,1.24,3.38,1.24,1.01,0,1.9-.36,2.65-1.07.98-1.01,1.67-2.42,2.09-4.23h1.97Z"/>
  <path class="cls-2" d="M382.93,85.53l1.86.4-6.54,20.75h-59.2v-2.09h2.88c3.23,0,5.54-1.05,6.93-3.16.79-1.2,1.18-3.98,1.18-8.34v-49.33c0-4.77-.53-7.76-1.58-8.96-1.47-1.65-3.65-2.48-6.54-2.48h-2.88v-2.09h34.62v2.09c-4.06-.04-6.91.34-8.54,1.13s-2.75,1.79-3.35,2.99c-.6,1.2-.9,4.08-.9,8.63v48.04c0,3.12.3,5.26.9,6.43.45.79,1.15,1.37,2.09,1.75s3.87.56,8.79.56h5.58c5.86,0,9.98-.43,12.35-1.3,2.37-.86,4.53-2.4,6.48-4.59s3.91-5.67,5.86-10.4Z"/>
  <path class="cls-2" d="M411.4,34.39v30.22h16.8c4.36,0,7.27-.66,8.74-1.97,1.95-1.73,3.04-4.77,3.27-9.13h2.09v26.61h-2.09c-.53-3.72-1.05-6.11-1.58-7.16-.68-1.32-1.79-2.35-3.33-3.1-1.54-.75-3.91-1.13-7.1-1.13h-16.8v25.2c0,3.38.15,5.44.45,6.17.3.73.83,1.32,1.58,1.75.75.43,2.18.65,4.28.65h12.97c4.32,0,7.46-.3,9.42-.9,1.95-.6,3.83-1.78,5.64-3.55,2.33-2.33,4.72-5.84,7.16-10.54h2.25l-6.6,19.17h-58.92v-2.09h2.71c1.8,0,3.51-.43,5.13-1.3,1.2-.6,2.02-1.5,2.45-2.71.43-1.2.65-3.67.65-7.39v-49.67c0-4.85-.49-7.84-1.47-8.96-1.35-1.5-3.61-2.26-6.77-2.26h-2.71v-2.09h58.92l.85,16.75h-2.2c-.79-4.02-1.66-6.78-2.62-8.29-.96-1.5-2.38-2.65-4.26-3.44-1.5-.56-4.15-.85-7.95-.85h-20.97Z"/>
</svg>